<svg width="129" height="129" viewBox="0 0 129 129" fill="none" xmlns="http://www.w3.org/2000/svg">
<path d="M65.625 46.667C68.8465 46.6672 71.459 49.2785 71.459 52.5V87.5H75.834C79.0552 87.5004 81.6669 90.1117 81.667 93.333C81.6669 96.5543 79.0553 99.1666 75.834 99.167H55.417C52.1955 99.167 49.5842 96.5546 49.584 93.333C49.5842 90.1115 52.1955 87.5 55.417 87.5H59.792V58.333C56.5705 58.333 53.9592 55.7215 53.959 52.5C53.959 49.2783 56.5704 46.667 59.792 46.667H65.625Z" fill="#6DC8E6"/>
<path d="M64.167 26.25C66.1008 26.2501 67.955 27.0184 69.3223 28.3857C70.6897 29.7531 71.4579 31.6073 71.4581 33.541C71.4581 35.4749 70.6898 37.3298 69.3223 38.6973C67.955 40.0646 66.1007 40.8329 64.167 40.833C62.2332 40.833 60.3782 40.0647 59.0108 38.6973C57.6433 37.3298 56.875 35.4749 56.875 33.541C56.8752 31.6073 57.6435 29.7531 59.0108 28.3857C60.3782 27.0183 62.2332 26.25 64.167 26.25Z" fill="#6DC8E6"/>
<path fill-rule="evenodd" clip-rule="evenodd" d="M64.1729 0.000976562C72.5985 -0.00761541 80.9432 1.64662 88.7276 4.87109C96.516 8.09729 103.59 12.8304 109.544 18.7988C115.508 24.7504 120.237 31.8211 123.462 39.6055C126.686 47.3896 128.342 55.7338 128.333 64.1592C128.343 72.5895 126.688 80.939 123.462 88.7275C120.238 96.5115 115.507 103.581 109.543 109.532L109.544 109.533C103.59 115.502 96.5161 120.236 88.7276 123.462C80.9432 126.686 72.5985 128.341 64.1729 128.332L64.1739 128.333C64.1714 128.333 64.1686 128.332 64.1661 128.332C64.1638 128.332 64.1615 128.333 64.1592 128.333C55.7339 128.341 47.3896 126.686 39.6055 123.462C31.8212 120.237 24.7505 115.507 18.7989 109.543C12.8306 103.59 8.09725 96.5157 4.87114 88.7275C1.64492 80.939 -0.0103468 72.5895 4.86623e-05 64.1592C-0.00844499 55.7338 1.64676 47.3896 4.87114 39.6055C8.09731 31.8171 12.8304 24.7426 18.7989 18.7891C24.7504 12.8252 31.8214 8.09551 39.6055 4.87109C47.3896 1.64671 55.7338 -0.00750919 64.1592 0.000976562C64.1615 0.000973785 64.1638 0.000961793 64.1661 0.000976562C64.1686 0.000979351 64.1714 1.25558e-05 64.1739 0L64.1729 0.000976562ZM64.1592 11.666C57.266 11.6575 50.4389 13.0114 44.0704 15.6494C37.7019 18.2874 31.917 22.1577 27.0489 27.0381C27.0454 27.0415 27.0416 27.0454 27.0381 27.0488C22.1578 31.917 18.2875 37.7018 15.6495 44.0703C13.0115 50.4388 11.6576 57.2659 11.6661 64.1592C11.6661 64.164 11.6661 64.169 11.6661 64.1738C11.6576 71.0671 13.0115 77.8942 15.6495 84.2627C18.2051 90.4323 21.9174 96.0539 26.584 100.825L27.0381 101.284L27.0489 101.294C31.9171 106.174 37.7018 110.046 44.0704 112.684C50.4389 115.322 57.266 116.675 64.1592 116.666H64.1739C71.0671 116.674 77.8943 115.322 84.2627 112.684C90.6313 110.046 96.416 106.174 101.284 101.294L101.294 101.284C106.174 96.416 110.046 90.6313 112.684 84.2627C115.322 77.8942 116.675 71.0671 116.666 64.1738V64.1592C116.675 57.2659 115.322 50.4388 112.684 44.0703C110.046 37.7017 106.174 31.917 101.294 27.0488C101.291 27.0454 101.288 27.0415 101.284 27.0381C96.4161 22.1577 90.6313 18.2874 84.2627 15.6494C77.8942 13.0114 71.0671 11.6575 64.1739 11.666C64.1691 11.666 64.164 11.666 64.1592 11.666Z" fill="#6DC8E6"/>
</svg>
