<svg width="1537" height="296" viewBox="0 0 1537 296" fill="none" xmlns="http://www.w3.org/2000/svg">
<path d="M978.046 90.3461C971.493 90.3461 965.886 88.9601 961.224 86.1879C956.562 83.4158 952.971 79.4781 950.45 74.3749C947.993 69.2717 946.765 63.1919 946.765 56.1355C946.765 50.8433 947.458 46.1181 948.844 41.9599C950.293 37.7387 952.341 34.179 954.987 31.2809C957.696 28.3197 961.003 26.0516 964.91 24.4765C968.816 22.8385 973.195 22.0194 978.046 22.0194C981.952 22.0194 985.669 22.5864 989.197 23.7205C992.725 24.7916 995.781 26.3981 998.364 28.5402C999.183 29.1703 999.719 29.8948 999.971 30.7138C1000.29 31.4699 1000.32 32.2259 1000.07 32.9819C999.876 33.675 999.498 34.2735 998.931 34.7775C998.427 35.2185 997.797 35.4391 997.041 35.4391C996.285 35.4391 995.435 35.124 994.49 34.494C992.221 32.6669 989.733 31.3124 987.024 30.4303C984.315 29.5483 981.385 29.1073 978.235 29.1073C973.258 29.1073 969.036 30.1783 965.571 32.3204C962.106 34.3995 959.491 37.4551 957.727 41.4873C955.963 45.5195 955.081 50.4023 955.081 56.1355C955.081 61.8688 955.963 66.783 957.727 70.8782C959.491 74.9104 962.106 77.9976 965.571 80.1397C969.036 82.2188 973.258 83.2583 978.235 83.2583C981.322 83.2583 984.252 82.8173 987.024 81.9352C989.796 80.9902 992.347 79.6041 994.679 77.7771C995.624 77.147 996.474 76.8635 997.23 76.9265C997.986 76.9265 998.616 77.147 999.12 77.588C999.624 78.0291 999.971 78.5961 1000.16 79.2891C1000.41 79.9822 1000.41 80.7067 1000.16 81.4627C999.971 82.2188 999.498 82.8803 998.742 83.4473C996.096 85.7154 992.977 87.448 989.386 88.6451C985.858 89.7791 982.078 90.3461 978.046 90.3461ZM1009.73 90.1571C1008.72 90.1571 1007.9 89.9366 1007.27 89.4956C1006.71 88.9916 1006.36 88.3616 1006.23 87.6055C1006.17 86.7865 1006.36 85.8729 1006.8 84.8649L1032.79 25.7051C1033.36 24.445 1034.02 23.563 1034.77 23.059C1035.59 22.4919 1036.48 22.2084 1037.42 22.2084C1038.37 22.2084 1039.22 22.4919 1039.97 23.059C1040.79 23.563 1041.45 24.445 1041.96 25.7051L1068.04 84.8649C1068.54 85.8729 1068.73 86.7865 1068.61 87.6055C1068.54 88.4246 1068.23 89.0546 1067.66 89.4956C1067.09 89.9366 1066.31 90.1571 1065.3 90.1571C1064.17 90.1571 1063.25 89.8736 1062.56 89.3066C1061.87 88.6766 1061.3 87.7945 1060.86 86.6605L1053.86 70.5002L1057.64 72.4848H1017.01L1020.88 70.5002L1013.98 86.6605C1013.42 87.8575 1012.82 88.7396 1012.19 89.3066C1011.56 89.8736 1010.74 90.1571 1009.73 90.1571ZM1037.33 31.9424L1022.11 67.7596L1019.84 65.964H1054.81L1052.73 67.7596L1037.51 31.9424H1037.33ZM1040.82 16.8217C1040.32 17.3887 1039.72 17.7037 1039.03 17.7667C1038.4 17.7667 1037.83 17.6092 1037.33 17.2942C1036.82 16.9162 1036.48 16.4437 1036.29 15.8766C1036.16 15.3096 1036.32 14.6796 1036.76 13.9865L1045.17 1.79547C1045.74 0.976428 1046.37 0.472403 1047.06 0.283393C1047.75 0.0943868 1048.45 0.12589 1049.14 0.377902C1049.83 0.566909 1050.37 0.913424 1050.75 1.41745C1051.19 1.92147 1051.41 2.52 1051.41 3.21303C1051.47 3.84306 1051.22 4.50459 1050.65 5.19763L1040.82 16.8217ZM1083.78 90.1571C1082.64 90.1571 1081.76 89.8421 1081.13 89.2121C1080.5 88.5191 1080.19 87.574 1080.19 86.377V25.9886C1080.19 24.7285 1080.5 23.7835 1081.13 23.1535C1081.76 22.5234 1082.64 22.2084 1083.78 22.2084C1084.78 22.2084 1085.57 22.4289 1086.14 22.87C1086.77 23.248 1087.34 23.9095 1087.84 24.8546L1113.73 73.6189H1110.9L1136.7 24.8546C1137.2 23.9095 1137.74 23.248 1138.31 22.87C1138.87 22.4289 1139.69 22.2084 1140.76 22.2084C1141.83 22.2084 1142.68 22.5234 1143.31 23.1535C1143.94 23.7835 1144.26 24.7285 1144.26 25.9886V86.377C1144.26 87.574 1143.94 88.5191 1143.31 89.2121C1142.75 89.8421 1141.87 90.1571 1140.67 90.1571C1139.53 90.1571 1138.65 89.8421 1138.02 89.2121C1137.39 88.5191 1137.08 87.574 1137.08 86.377V33.2655H1139.34L1115.72 77.588C1115.28 78.4071 1114.81 79.0056 1114.3 79.3836C1113.86 79.6986 1113.2 79.8562 1112.32 79.8562C1111.43 79.8562 1110.74 79.6671 1110.24 79.2891C1109.73 78.9111 1109.29 78.3441 1108.91 77.588L1085 33.1709H1087.27V86.377C1087.27 87.574 1086.96 88.5191 1086.33 89.2121C1085.76 89.8421 1084.91 90.1571 1083.78 90.1571ZM1159.42 90.1571C1158.42 90.1571 1157.6 89.9366 1156.97 89.4956C1156.4 88.9916 1156.05 88.3616 1155.93 87.6055C1155.86 86.7865 1156.05 85.8729 1156.49 84.8649L1182.48 25.7051C1183.05 24.445 1183.71 23.563 1184.47 23.059C1185.29 22.4919 1186.17 22.2084 1187.11 22.2084C1188.06 22.2084 1188.91 22.4919 1189.67 23.059C1190.48 23.563 1191.15 24.445 1191.65 25.7051L1217.73 84.8649C1218.24 85.8729 1218.43 86.7865 1218.3 87.6055C1218.24 88.4246 1217.92 89.0546 1217.36 89.4956C1216.79 89.9366 1216 90.1571 1214.99 90.1571C1213.86 90.1571 1212.95 89.8736 1212.25 89.3066C1211.56 88.6766 1210.99 87.7945 1210.55 86.6605L1203.56 70.5002L1207.34 72.4848H1166.7L1170.58 70.5002L1163.68 86.6605C1163.11 87.8575 1162.51 88.7396 1161.88 89.3066C1161.25 89.8736 1160.43 90.1571 1159.42 90.1571ZM1187.02 31.9424L1171.8 67.7596L1169.54 65.964H1204.5L1202.42 67.7596L1187.21 31.9424H1187.02ZM1233.56 90.1571C1232.3 90.1571 1231.33 89.8106 1230.63 89.1176C1230 88.3616 1229.69 87.3535 1229.69 86.0934V26.8391C1229.69 25.5161 1230.04 24.5395 1230.73 23.9095C1231.42 23.2165 1232.4 22.87 1233.66 22.87H1256.06C1263.18 22.87 1268.66 24.5395 1272.5 27.8787C1276.34 31.2179 1278.26 35.9746 1278.26 42.1489C1278.26 46.0551 1277.38 49.4572 1275.62 52.3554C1273.92 55.1905 1271.4 57.3641 1268.06 58.8762C1264.72 60.3252 1260.72 61.0498 1256.06 61.0498L1257 59.8212H1258.89C1261.35 59.8212 1263.49 60.4512 1265.32 61.7113C1267.14 62.9714 1268.81 64.9874 1270.33 67.7596L1279.4 84.6759C1279.9 85.5579 1280.12 86.44 1280.06 87.322C1280.06 88.141 1279.78 88.8341 1279.21 89.4011C1278.64 89.9051 1277.82 90.1571 1276.75 90.1571C1275.68 90.1571 1274.8 89.9051 1274.11 89.4011C1273.41 88.8971 1272.82 88.1725 1272.31 87.2275L1262.01 68.1376C1260.56 65.4285 1258.89 63.6329 1257 62.7508C1255.11 61.8058 1252.62 61.3333 1249.54 61.3333H1237.44V86.0934C1237.44 87.3535 1237.12 88.3616 1236.49 89.1176C1235.86 89.8106 1234.89 90.1571 1233.56 90.1571ZM1237.44 55.1905H1254.92C1260.09 55.1905 1263.99 54.1194 1266.64 51.9773C1269.29 49.7722 1270.61 46.4961 1270.61 42.1489C1270.61 37.9277 1269.29 34.746 1266.64 32.6039C1263.99 30.3988 1260.09 29.2963 1254.92 29.2963H1237.44V55.1905ZM1290.48 90.1571C1289.47 90.1571 1288.65 89.9366 1288.02 89.4956C1287.45 88.9916 1287.1 88.3616 1286.98 87.6055C1286.92 86.7865 1287.1 85.8729 1287.55 84.8649L1313.53 25.7051C1314.1 24.445 1314.76 23.563 1315.52 23.059C1316.34 22.4919 1317.22 22.2084 1318.17 22.2084C1319.11 22.2084 1319.96 22.4919 1320.72 23.059C1321.54 23.563 1322.2 24.445 1322.7 25.7051L1348.78 84.8649C1349.29 85.8729 1349.48 86.7865 1349.35 87.6055C1349.29 88.4246 1348.97 89.0546 1348.41 89.4956C1347.84 89.9366 1347.05 90.1571 1346.04 90.1571C1344.91 90.1571 1344 89.8736 1343.3 89.3066C1342.61 88.6766 1342.04 87.7945 1341.6 86.6605L1334.61 70.5002L1338.39 72.4848H1297.75L1301.63 70.5002L1294.73 86.6605C1294.16 87.8575 1293.56 88.7396 1292.93 89.3066C1292.3 89.8736 1291.48 90.1571 1290.48 90.1571ZM1318.07 31.9424L1302.86 67.7596L1300.59 65.964H1335.55L1333.47 67.7596L1318.26 31.9424H1318.07ZM975.494 185.346C971.084 185.346 967.209 184.779 963.87 183.645C960.594 182.448 957.822 180.715 955.554 178.447C953.286 176.116 951.584 173.25 950.45 169.847C949.316 166.445 948.749 162.539 948.749 158.129V121.178C948.749 119.855 949.064 118.878 949.694 118.248C950.387 117.555 951.364 117.208 952.624 117.208C953.884 117.208 954.829 117.555 955.459 118.248C956.152 118.878 956.499 119.855 956.499 121.178V157.751C956.499 164.681 958.105 169.879 961.318 173.344C964.532 176.746 969.257 178.447 975.494 178.447C981.731 178.447 986.425 176.746 989.575 173.344C992.725 169.879 994.301 164.681 994.301 157.751V121.178C994.301 119.855 994.647 118.878 995.34 118.248C996.033 117.555 997.01 117.208 998.27 117.208C999.467 117.208 1000.38 117.555 1001.01 118.248C1001.7 118.878 1002.05 119.855 1002.05 121.178V158.129C1002.05 163.988 1001.04 168.965 999.026 173.061C997.073 177.156 994.112 180.243 990.142 182.322C986.173 184.338 981.29 185.346 975.494 185.346ZM1021.85 185.157C1020.59 185.157 1019.62 184.811 1018.92 184.118C1018.29 183.362 1017.98 182.354 1017.98 181.093V121.839C1017.98 120.516 1018.32 119.54 1019.02 118.91C1019.71 118.216 1020.69 117.87 1021.95 117.87H1044.34C1051.46 117.87 1056.94 119.54 1060.79 122.879C1064.63 126.218 1066.55 130.975 1066.55 137.149C1066.55 141.055 1065.67 144.457 1063.91 147.355C1062.21 150.19 1059.69 152.364 1056.35 153.876C1053.01 155.325 1049.01 156.05 1044.34 156.05L1045.29 154.821H1047.18C1049.64 154.821 1051.78 155.451 1053.61 156.711C1055.43 157.971 1057.1 159.987 1058.61 162.76L1067.69 179.676C1068.19 180.558 1068.41 181.44 1068.35 182.322C1068.35 183.141 1068.06 183.834 1067.5 184.401C1066.93 184.905 1066.11 185.157 1065.04 185.157C1063.97 185.157 1063.09 184.905 1062.39 184.401C1061.7 183.897 1061.1 183.173 1060.6 182.227L1050.3 163.138C1048.85 160.428 1047.18 158.633 1045.29 157.751C1043.4 156.806 1040.91 156.333 1037.82 156.333H1025.73V181.093C1025.73 182.354 1025.41 183.362 1024.78 184.118C1024.15 184.811 1023.18 185.157 1021.85 185.157ZM1025.73 150.19H1043.21C1048.38 150.19 1052.28 149.119 1054.93 146.977C1057.57 144.772 1058.9 141.496 1058.9 137.149C1058.9 132.928 1057.57 129.746 1054.93 127.604C1052.28 125.399 1048.38 124.296 1043.21 124.296H1025.73V150.19ZM1107.47 185.346C1103.06 185.346 1099.18 184.779 1095.84 183.645C1092.57 182.448 1089.8 180.715 1087.53 178.447C1085.26 176.116 1083.56 173.25 1082.42 169.847C1081.29 166.445 1080.72 162.539 1080.72 158.129V121.178C1080.72 119.855 1081.04 118.878 1081.67 118.248C1082.36 117.555 1083.34 117.208 1084.6 117.208C1085.86 117.208 1086.8 117.555 1087.43 118.248C1088.13 118.878 1088.47 119.855 1088.47 121.178V157.751C1088.47 164.681 1090.08 169.879 1093.29 173.344C1096.51 176.746 1101.23 178.447 1107.47 178.447C1113.71 178.447 1118.4 176.746 1121.55 173.344C1124.7 169.879 1126.27 164.681 1126.27 157.751V121.178C1126.27 119.855 1126.62 118.878 1127.31 118.248C1128.01 117.555 1128.98 117.208 1130.24 117.208C1131.44 117.208 1132.35 117.555 1132.98 118.248C1133.68 118.878 1134.02 119.855 1134.02 121.178V158.129C1134.02 163.988 1133.02 168.965 1131 173.061C1129.05 177.156 1126.09 180.243 1122.12 182.322C1118.15 184.338 1113.26 185.346 1107.47 185.346ZM1180.38 185.346C1173.26 185.346 1167.25 183.992 1162.33 181.282C1157.48 178.573 1153.79 174.667 1151.27 169.564C1148.75 164.461 1147.49 158.349 1147.49 151.23C1147.49 145.938 1148.19 141.181 1149.57 136.96C1151.02 132.739 1153.1 129.179 1155.81 126.281C1158.58 123.32 1161.92 121.052 1165.83 119.477C1169.8 117.838 1174.27 117.019 1179.25 117.019C1183.22 117.019 1187.06 117.586 1190.78 118.721C1194.49 119.792 1197.8 121.524 1200.7 123.918C1201.46 124.485 1201.93 125.115 1202.12 125.808C1202.31 126.501 1202.28 127.194 1202.02 127.887C1201.83 128.58 1201.49 129.179 1200.98 129.683C1200.54 130.124 1199.94 130.376 1199.19 130.439C1198.5 130.502 1197.77 130.282 1197.01 129.778C1194.43 127.761 1191.69 126.312 1188.79 125.43C1185.89 124.485 1182.68 124.013 1179.15 124.013C1174.11 124.013 1169.83 125.084 1166.3 127.226C1162.84 129.368 1160.19 132.455 1158.36 136.487C1156.6 140.52 1155.72 145.434 1155.72 151.23C1155.72 160.05 1157.76 166.792 1161.86 171.454C1166.02 176.116 1172.25 178.447 1180.57 178.447C1183.6 178.447 1186.56 178.164 1189.45 177.597C1192.35 176.967 1195.09 176.116 1197.68 175.045L1195.98 179.487V155.955H1182.46C1181.33 155.955 1180.48 155.672 1179.91 155.105C1179.34 154.538 1179.06 153.782 1179.06 152.837C1179.06 151.829 1179.34 151.073 1179.91 150.569C1180.48 150.064 1181.33 149.812 1182.46 149.812H1199.38C1200.45 149.812 1201.27 150.096 1201.83 150.663C1202.4 151.23 1202.69 152.049 1202.69 153.12V177.786C1202.69 178.731 1202.53 179.518 1202.21 180.148C1201.9 180.778 1201.36 181.251 1200.61 181.566C1197.96 182.637 1194.78 183.551 1191.06 184.307C1187.41 185 1183.85 185.346 1180.38 185.346ZM1244.79 185.346C1240.38 185.346 1236.51 184.779 1233.17 183.645C1229.89 182.448 1227.12 180.715 1224.85 178.447C1222.59 176.116 1220.89 173.25 1219.75 169.847C1218.62 166.445 1218.05 162.539 1218.05 158.129V121.178C1218.05 119.855 1218.37 118.878 1219 118.248C1219.69 117.555 1220.66 117.208 1221.92 117.208C1223.18 117.208 1224.13 117.555 1224.76 118.248C1225.45 118.878 1225.8 119.855 1225.8 121.178V157.751C1225.8 164.681 1227.41 169.879 1230.62 173.344C1233.83 176.746 1238.56 178.447 1244.79 178.447C1251.03 178.447 1255.73 176.746 1258.88 173.344C1262.03 169.879 1263.6 164.681 1263.6 157.751V121.178C1263.6 119.855 1263.95 118.878 1264.64 118.248C1265.33 117.555 1266.31 117.208 1267.57 117.208C1268.77 117.208 1269.68 117.555 1270.31 118.248C1271 118.878 1271.35 119.855 1271.35 121.178V158.129C1271.35 163.988 1270.34 168.965 1268.33 173.061C1266.37 177.156 1263.41 180.243 1259.44 182.322C1255.47 184.338 1250.59 185.346 1244.79 185.346ZM1285.4 185.157C1284.39 185.157 1283.57 184.937 1282.94 184.496C1282.38 183.992 1282.03 183.362 1281.9 182.606C1281.84 181.786 1282.03 180.873 1282.47 179.865L1308.46 120.705C1309.03 119.445 1309.69 118.563 1310.44 118.059C1311.26 117.492 1312.14 117.208 1313.09 117.208C1314.03 117.208 1314.88 117.492 1315.64 118.059C1316.46 118.563 1317.12 119.445 1317.63 120.705L1343.71 179.865C1344.21 180.873 1344.4 181.786 1344.28 182.606C1344.21 183.425 1343.9 184.055 1343.33 184.496C1342.76 184.937 1341.98 185.157 1340.97 185.157C1339.83 185.157 1338.92 184.874 1338.23 184.307C1337.53 183.677 1336.97 182.795 1336.53 181.66L1329.53 165.5L1333.31 167.485H1292.68L1296.55 165.5L1289.65 181.66C1289.09 182.858 1288.49 183.74 1287.86 184.307C1287.23 184.874 1286.41 185.157 1285.4 185.157ZM1312.99 126.942L1297.78 162.76L1295.51 160.964H1330.48L1328.4 162.76L1313.18 126.942H1312.99ZM1369.42 185.157C1368.16 185.157 1367.19 184.811 1366.49 184.118C1365.86 183.362 1365.55 182.322 1365.55 180.999V150.001L1367.25 155.388L1343.53 122.69C1342.96 121.871 1342.68 121.052 1342.68 120.233C1342.74 119.351 1343.09 118.626 1343.72 118.059C1344.35 117.492 1345.17 117.208 1346.17 117.208C1347.06 117.208 1347.84 117.429 1348.54 117.87C1349.23 118.248 1349.86 118.878 1350.43 119.76L1370.56 147.544H1368.57L1388.7 119.76C1389.39 118.815 1390.06 118.153 1390.69 117.775C1391.32 117.397 1392.07 117.208 1392.95 117.208C1393.96 117.208 1394.75 117.492 1395.32 118.059C1395.88 118.563 1396.17 119.256 1396.17 120.138C1396.23 120.957 1395.95 121.839 1395.32 122.784L1371.69 155.388L1373.3 150.001V180.999C1373.3 183.771 1372.01 185.157 1369.42 185.157ZM1398.18 185.157C1397.17 185.157 1396.35 184.937 1395.72 184.496C1395.15 183.992 1394.81 183.362 1394.68 182.606C1394.62 181.786 1394.81 180.873 1395.25 179.865L1421.24 120.705C1421.8 119.445 1422.46 118.563 1423.22 118.059C1424.04 117.492 1424.92 117.208 1425.87 117.208C1426.81 117.208 1427.66 117.492 1428.42 118.059C1429.24 118.563 1429.9 119.445 1430.4 120.705L1456.49 179.865C1456.99 180.873 1457.18 181.786 1457.05 182.606C1456.99 183.425 1456.68 184.055 1456.11 184.496C1455.54 184.937 1454.75 185.157 1453.75 185.157C1452.61 185.157 1451.7 184.874 1451.01 184.307C1450.31 183.677 1449.75 182.795 1449.3 181.66L1442.31 165.5L1446.09 167.485H1405.45L1409.33 165.5L1402.43 181.66C1401.86 182.858 1401.26 183.74 1400.63 184.307C1400 184.874 1399.19 185.157 1398.18 185.157ZM1425.77 126.942L1410.56 162.76L1408.29 160.964H1443.26L1441.18 162.76L1425.96 126.942H1425.77ZM953.475 279.496C952.089 279.496 951.017 279.149 950.261 278.456C949.568 277.7 949.222 276.629 949.222 275.243V217.123C949.222 215.737 949.568 214.697 950.261 214.004C951.017 213.248 952.089 212.87 953.475 212.87H971.714C982.487 212.87 990.804 215.705 996.663 221.375C1002.52 227.046 1005.45 235.299 1005.45 246.136C1005.45 251.554 1004.7 256.342 1003.18 260.5C1001.73 264.595 999.561 268.061 996.663 270.896C993.765 273.731 990.237 275.873 986.079 277.322C981.92 278.771 977.132 279.496 971.714 279.496H953.475ZM956.971 272.88H971.147C975.557 272.88 979.369 272.313 982.582 271.179C985.858 270.045 988.567 268.376 990.709 266.17C992.914 263.965 994.553 261.193 995.624 257.854C996.695 254.452 997.23 250.546 997.23 246.136C997.23 237.252 995.057 230.605 990.709 226.195C986.362 221.722 979.841 219.485 971.147 219.485H956.971V272.88ZM1023.61 279.496C1022.23 279.496 1021.16 279.149 1020.4 278.456C1019.71 277.7 1019.36 276.629 1019.36 275.243V217.123C1019.36 215.737 1019.71 214.697 1020.4 214.004C1021.16 213.248 1022.23 212.87 1023.61 212.87H1058.77C1059.84 212.87 1060.66 213.153 1061.23 213.721C1061.79 214.288 1062.08 215.075 1062.08 216.083C1062.08 217.154 1061.79 217.973 1061.23 218.54C1060.66 219.107 1059.84 219.391 1058.77 219.391H1026.92V242.45H1056.79C1057.86 242.45 1058.68 242.733 1059.24 243.3C1059.81 243.804 1060.09 244.592 1060.09 245.663C1060.09 246.734 1059.81 247.553 1059.24 248.12C1058.68 248.687 1057.86 248.971 1056.79 248.971H1026.92V272.975H1058.77C1059.84 272.975 1060.66 273.258 1061.23 273.825C1061.79 274.392 1062.08 275.18 1062.08 276.188C1062.08 277.259 1061.79 278.078 1061.23 278.645C1060.66 279.212 1059.84 279.496 1058.77 279.496H1023.61ZM1120.37 280.346C1117.41 280.346 1114.51 280.094 1111.68 279.59C1108.84 279.086 1106.19 278.362 1103.74 277.417C1101.34 276.471 1099.17 275.274 1097.22 273.825C1096.46 273.258 1095.93 272.628 1095.61 271.935C1095.36 271.179 1095.3 270.455 1095.42 269.762C1095.61 269.006 1095.93 268.376 1096.37 267.872C1096.87 267.368 1097.47 267.084 1098.16 267.021C1098.85 266.958 1099.61 267.179 1100.43 267.683C1103.26 269.699 1106.29 271.179 1109.5 272.124C1112.72 273.006 1116.34 273.447 1120.37 273.447C1126.04 273.447 1130.23 272.408 1132.94 270.329C1135.71 268.187 1137.1 265.383 1137.1 261.918C1137.1 259.083 1136.09 256.878 1134.07 255.302C1132.12 253.664 1128.81 252.373 1124.15 251.428L1114.32 249.443C1108.4 248.183 1103.96 246.136 1101 243.3C1098.1 240.402 1096.65 236.559 1096.65 231.771C1096.65 228.81 1097.25 226.132 1098.45 223.738C1099.64 221.281 1101.31 219.202 1103.45 217.501C1105.6 215.737 1108.15 214.382 1111.11 213.437C1114.07 212.492 1117.35 212.019 1120.94 212.019C1124.91 212.019 1128.59 212.586 1131.99 213.721C1135.46 214.792 1138.58 216.43 1141.35 218.635C1142.04 219.202 1142.52 219.863 1142.77 220.619C1143.02 221.312 1143.05 222.005 1142.86 222.698C1142.67 223.328 1142.33 223.864 1141.82 224.305C1141.38 224.746 1140.78 224.998 1140.03 225.061C1139.33 225.124 1138.55 224.872 1137.66 224.305C1135.14 222.415 1132.53 221.06 1129.82 220.241C1127.11 219.359 1124.12 218.918 1120.84 218.918C1117.5 218.918 1114.61 219.422 1112.15 220.43C1109.75 221.438 1107.86 222.919 1106.48 224.872C1105.15 226.762 1104.49 228.967 1104.49 231.487C1104.49 234.511 1105.41 236.906 1107.23 238.67C1109.12 240.434 1112.18 241.725 1116.4 242.544L1126.23 244.623C1132.59 245.947 1137.29 247.963 1140.31 250.672C1143.4 253.318 1144.94 256.941 1144.94 261.54C1144.94 264.312 1144.37 266.864 1143.24 269.195C1142.11 271.526 1140.47 273.542 1138.33 275.243C1136.18 276.881 1133.6 278.141 1130.58 279.023C1127.55 279.905 1124.15 280.346 1120.37 280.346ZM1161.22 279.496C1159.83 279.496 1158.76 279.149 1158.01 278.456C1157.31 277.7 1156.97 276.629 1156.97 275.243V217.123C1156.97 215.737 1157.31 214.697 1158.01 214.004C1158.76 213.248 1159.83 212.87 1161.22 212.87H1196.37C1197.44 212.87 1198.26 213.153 1198.83 213.721C1199.4 214.288 1199.68 215.075 1199.68 216.083C1199.68 217.154 1199.4 217.973 1198.83 218.54C1198.26 219.107 1197.44 219.391 1196.37 219.391H1164.53V242.45H1194.39C1195.46 242.45 1196.28 242.733 1196.85 243.3C1197.41 243.804 1197.7 244.592 1197.7 245.663C1197.7 246.734 1197.41 247.553 1196.85 248.12C1196.28 248.687 1195.46 248.971 1194.39 248.971H1164.53V272.975H1196.37C1197.44 272.975 1198.26 273.258 1198.83 273.825C1199.4 274.392 1199.68 275.18 1199.68 276.188C1199.68 277.259 1199.4 278.078 1198.83 278.645C1198.26 279.212 1197.44 279.496 1196.37 279.496H1161.22ZM1215.84 280.157C1214.71 280.157 1213.83 279.842 1213.2 279.212C1212.57 278.519 1212.25 277.574 1212.25 276.377V215.989C1212.25 214.729 1212.57 213.784 1213.2 213.153C1213.83 212.523 1214.71 212.208 1215.84 212.208C1216.85 212.208 1217.64 212.429 1218.21 212.87C1218.84 213.248 1219.4 213.91 1219.91 214.855L1245.8 263.619H1242.97L1268.77 214.855C1269.27 213.91 1269.8 213.248 1270.37 212.87C1270.94 212.429 1271.76 212.208 1272.83 212.208C1273.9 212.208 1274.75 212.523 1275.38 213.153C1276.01 213.784 1276.33 214.729 1276.33 215.989V276.377C1276.33 277.574 1276.01 278.519 1275.38 279.212C1274.81 279.842 1273.93 280.157 1272.73 280.157C1271.6 280.157 1270.72 279.842 1270.09 279.212C1269.46 278.519 1269.14 277.574 1269.14 276.377V223.265H1271.41L1247.79 267.588C1247.34 268.407 1246.87 269.006 1246.37 269.384C1245.93 269.699 1245.26 269.856 1244.38 269.856C1243.5 269.856 1242.81 269.667 1242.3 269.289C1241.8 268.911 1241.36 268.344 1240.98 267.588L1217.07 223.171H1219.34V276.377C1219.34 277.574 1219.02 278.519 1218.39 279.212C1217.83 279.842 1216.98 280.157 1215.84 280.157ZM1296.78 280.157C1295.52 280.157 1294.55 279.811 1293.85 279.118C1293.22 278.362 1292.91 277.354 1292.91 276.093V216.272C1292.91 214.949 1293.22 213.941 1293.85 213.248C1294.55 212.555 1295.52 212.208 1296.78 212.208C1298.04 212.208 1298.99 212.555 1299.62 213.248C1300.31 213.941 1300.66 214.949 1300.66 216.272V276.093C1300.66 277.354 1300.34 278.362 1299.71 279.118C1299.08 279.811 1298.11 280.157 1296.78 280.157ZM1321.15 279.496C1319.89 279.496 1318.91 279.149 1318.22 278.456C1317.53 277.7 1317.18 276.692 1317.18 275.432V216.461C1317.18 215.138 1317.5 214.13 1318.13 213.437C1318.82 212.744 1319.79 212.397 1321.05 212.397C1322.31 212.397 1323.26 212.744 1323.89 213.437C1324.58 214.13 1324.93 215.138 1324.93 216.461V272.691H1355.93C1357.06 272.691 1357.94 273.006 1358.57 273.636C1359.2 274.203 1359.52 275.022 1359.52 276.093C1359.52 277.164 1359.2 278.015 1358.57 278.645C1357.94 279.212 1357.06 279.496 1355.93 279.496H1321.15ZM1372.46 279.496C1371.2 279.496 1370.23 279.149 1369.53 278.456C1368.84 277.7 1368.49 276.692 1368.49 275.432V216.461C1368.49 215.138 1368.81 214.13 1369.44 213.437C1370.13 212.744 1371.11 212.397 1372.37 212.397C1373.63 212.397 1374.57 212.744 1375.2 213.437C1375.9 214.13 1376.24 215.138 1376.24 216.461V272.691H1407.24C1408.37 272.691 1409.26 273.006 1409.89 273.636C1410.52 274.203 1410.83 275.022 1410.83 276.093C1410.83 277.164 1410.52 278.015 1409.89 278.645C1409.26 279.212 1408.37 279.496 1407.24 279.496H1372.46ZM1416.45 280.157C1415.44 280.157 1414.62 279.937 1413.99 279.496C1413.43 278.992 1413.08 278.362 1412.95 277.606C1412.89 276.786 1413.08 275.873 1413.52 274.865L1439.51 215.705C1440.08 214.445 1440.74 213.563 1441.49 213.059C1442.31 212.492 1443.2 212.208 1444.14 212.208C1445.09 212.208 1445.94 212.492 1446.69 213.059C1447.51 213.563 1448.17 214.445 1448.68 215.705L1474.76 274.865C1475.26 275.873 1475.45 276.786 1475.33 277.606C1475.26 278.425 1474.95 279.055 1474.38 279.496C1473.81 279.937 1473.03 280.157 1472.02 280.157C1470.89 280.157 1469.97 279.874 1469.28 279.307C1468.59 278.677 1468.02 277.795 1467.58 276.66L1460.58 260.5L1464.36 262.485H1423.73L1427.6 260.5L1420.7 276.66C1420.14 277.858 1419.54 278.74 1418.91 279.307C1418.28 279.874 1417.46 280.157 1416.45 280.157ZM1444.05 221.942L1428.83 257.76L1426.56 255.964H1461.53L1459.45 257.76L1444.23 221.942H1444.05ZM1507.71 280.346C1504.75 280.346 1501.85 280.094 1499.01 279.59C1496.18 279.086 1493.53 278.362 1491.08 277.417C1488.68 276.471 1486.51 275.274 1484.56 273.825C1483.8 273.258 1483.26 272.628 1482.95 271.935C1482.7 271.179 1482.63 270.455 1482.76 269.762C1482.95 269.006 1483.26 268.376 1483.71 267.872C1484.21 267.368 1484.81 267.084 1485.5 267.021C1486.19 266.958 1486.95 267.179 1487.77 267.683C1490.6 269.699 1493.63 271.179 1496.84 272.124C1500.05 273.006 1503.68 273.447 1507.71 273.447C1513.38 273.447 1517.57 272.408 1520.28 270.329C1523.05 268.187 1524.44 265.383 1524.44 261.918C1524.44 259.083 1523.43 256.878 1521.41 255.302C1519.46 253.664 1516.15 252.373 1511.49 251.428L1501.66 249.443C1495.74 248.183 1491.3 246.136 1488.34 243.3C1485.44 240.402 1483.99 236.559 1483.99 231.771C1483.99 228.81 1484.59 226.132 1485.78 223.738C1486.98 221.281 1488.65 219.202 1490.79 217.501C1492.94 215.737 1495.49 214.382 1498.45 213.437C1501.41 212.492 1504.69 212.019 1508.28 212.019C1512.25 212.019 1515.93 212.586 1519.33 213.721C1522.8 214.792 1525.92 216.43 1528.69 218.635C1529.38 219.202 1529.85 219.863 1530.11 220.619C1530.36 221.312 1530.39 222.005 1530.2 222.698C1530.01 223.328 1529.67 223.864 1529.16 224.305C1528.72 224.746 1528.12 224.998 1527.37 225.061C1526.67 225.124 1525.89 224.872 1525 224.305C1522.48 222.415 1519.87 221.06 1517.16 220.241C1514.45 219.359 1511.46 218.918 1508.18 218.918C1504.84 218.918 1501.94 219.422 1499.49 220.43C1497.09 221.438 1495.2 222.919 1493.82 224.872C1492.49 226.762 1491.83 228.967 1491.83 231.487C1491.83 234.511 1492.75 236.906 1494.57 238.67C1496.46 240.434 1499.52 241.725 1503.74 242.544L1513.57 244.623C1519.93 245.947 1524.63 247.963 1527.65 250.672C1530.74 253.318 1532.28 256.941 1532.28 261.54C1532.28 264.312 1531.71 266.864 1530.58 269.195C1529.45 271.526 1527.81 273.542 1525.67 275.243C1523.52 276.881 1520.94 278.141 1517.92 279.023C1514.89 279.905 1511.49 280.346 1507.71 280.346Z" fill="white"/>
<path d="M138.205 15.9858C139.724 15.986 141.242 15.9859 142.761 15.9853C146.86 15.985 150.958 15.9909 155.057 15.9979C159.349 16.0042 163.641 16.0047 167.933 16.0059C176.05 16.009 184.167 16.0172 192.284 16.0273C201.53 16.0385 210.775 16.0439 220.021 16.049C239.029 16.0594 258.038 16.077 277.047 16.0993C277.058 18.1683 277.066 20.2373 277.073 22.3063C277.077 23.4585 277.082 24.6107 277.087 25.7978C277.036 29.9709 276.654 33.9847 275.984 38.0993C275.856 38.8905 275.727 39.6818 275.595 40.497C269.561 74.2724 250.006 105.796 221.897 125.538C190.034 147.287 157.626 150.602 120.022 150.403C115.791 150.384 111.559 150.383 107.327 150.379C99.348 150.37 91.3695 150.346 83.391 150.315C74.2927 150.282 65.1945 150.265 56.0962 150.25C37.413 150.219 18.73 150.166 0.0469208 150.099C0.0338865 147.865 0.0246011 145.63 0.0168915 143.396C0.0113173 142.151 0.0057431 140.907 0 139.625C0.0562974 135.395 0.475542 131.378 1.23442 127.224C1.43406 126.095 1.43406 126.095 1.63774 124.944C8.1544 90.1807 27.7733 59.7822 56.7344 39.4743C81.3672 22.7501 108.591 15.9082 138.205 15.9858Z" fill="white"/>
<path d="M287.047 16.0995C288.655 16.0942 290.263 16.0904 291.871 16.0872C292.767 16.0849 293.662 16.0827 294.585 16.0803C325.259 16.3189 355.831 30.5538 378.047 51.0995C378.564 51.5726 379.081 52.0456 379.613 52.5331C405.095 76.0993 418.85 108.707 421.047 143.099C421.179 148.106 421.174 153.11 421.16 158.118C421.16 159.597 421.16 161.077 421.161 162.556C421.161 166.539 421.155 170.521 421.148 174.504C421.142 178.679 421.141 182.853 421.14 187.028C421.137 194.918 421.129 202.809 421.119 210.699C421.108 219.688 421.102 228.677 421.097 237.667C421.087 256.144 421.069 274.622 421.047 293.099C418.478 293.112 415.91 293.122 413.342 293.129C412.618 293.134 411.894 293.138 411.149 293.142C378.338 293.214 348.081 276.269 325.047 254.099C324.415 253.531 323.783 252.963 323.133 252.377C303.243 233.948 292.263 206.333 288.047 180.099C287.876 179.044 287.706 177.989 287.53 176.901C286.715 170.258 286.916 163.553 286.933 156.871C286.933 155.333 286.933 153.795 286.933 152.257C286.932 148.1 286.938 143.944 286.945 139.787C286.952 135.437 286.952 131.086 286.953 126.735C286.956 118.504 286.965 110.274 286.975 102.044C286.986 92.67 286.991 83.2963 286.996 73.9227C287.007 54.6483 287.024 35.3739 287.047 16.0995Z" fill="white"/>
<path d="M713.227 15.9858C714.736 15.986 716.245 15.9859 717.754 15.9853C721.821 15.985 725.889 15.9909 729.956 15.9979C734.217 16.0042 738.479 16.0047 742.74 16.0059C750.797 16.009 758.854 16.0172 766.911 16.0273C776.089 16.0385 785.266 16.044 794.444 16.049C813.312 16.0594 832.179 16.077 851.047 16.0993C851.065 18.8194 851.078 21.5393 851.089 24.2594C851.094 25.0247 851.1 25.79 851.105 26.5784C851.122 32.2392 850.669 37.566 849.422 43.0993C849.242 43.9319 849.063 44.7646 848.878 45.6225C841.043 80.2577 820.039 110.564 790.027 129.681C765.906 144.573 740.03 150.287 711.867 150.213C710.358 150.213 708.849 150.213 707.34 150.213C703.273 150.214 699.205 150.208 695.138 150.201C690.876 150.194 686.615 150.194 682.354 150.193C674.297 150.19 666.24 150.181 658.183 150.171C649.005 150.16 639.828 150.155 630.65 150.15C611.782 150.139 592.915 150.122 574.047 150.099C574.042 148.491 574.038 146.883 574.035 145.275C574.032 144.379 574.03 143.484 574.028 142.561C574.298 107.805 592.065 75.6382 616.05 51.6594C642.487 26.1038 677.176 15.8905 713.227 15.9858Z" fill="white"/>
<path d="M709.027 159.872C710.585 159.873 712.144 159.873 713.702 159.871C717.892 159.871 722.081 159.883 726.27 159.897C730.663 159.909 735.057 159.91 739.45 159.913C747.752 159.919 756.053 159.935 764.354 159.955C773.812 159.978 783.27 159.989 792.729 159.999C812.168 160.02 831.608 160.055 851.047 160.099C851.064 162.652 851.076 165.204 851.086 167.756C851.092 168.474 851.097 169.191 851.102 169.93C851.118 175.557 850.625 180.894 849.484 186.412C849.309 187.288 849.133 188.164 848.952 189.067C844.807 208.445 836.43 226.615 824.047 242.099C823.614 242.645 823.181 243.19 822.735 243.751C800.585 271.39 769.333 288.864 734.047 293.099C728.695 293.363 723.353 293.354 717.997 293.326C716.419 293.326 714.841 293.326 713.263 293.327C709.016 293.328 704.769 293.316 700.522 293.302C696.069 293.29 691.617 293.289 687.165 293.286C678.75 293.28 670.336 293.264 661.922 293.243C652.335 293.221 642.748 293.21 633.162 293.2C613.457 293.179 593.752 293.144 574.047 293.099C574.042 291.655 574.038 290.211 574.035 288.767C574.032 287.963 574.03 287.158 574.028 286.33C574.28 256.91 587.039 228.075 606.047 206.099C606.72 205.294 607.393 204.488 608.086 203.658C633.48 174.155 670.658 159.675 709.027 159.872Z" fill="white"/>
<path d="M0.0468833 160.099C20.3366 160.029 40.6263 159.976 60.9162 159.944C70.3389 159.928 79.7615 159.907 89.1841 159.873C97.4048 159.843 105.625 159.824 113.846 159.817C118.192 159.813 122.537 159.804 126.883 159.782C167.58 159.584 167.58 159.584 186.484 166.162C187.349 166.458 188.214 166.754 189.105 167.059C221.624 178.672 249.503 203.364 264.359 234.599C271.99 251.226 277.129 268.989 277.066 287.373C277.062 288.984 277.062 288.984 277.058 290.628C277.054 291.444 277.051 292.259 277.047 293.099C256.531 293.193 236.015 293.263 215.499 293.307C205.971 293.327 196.443 293.355 186.915 293.401C178.601 293.441 170.288 293.467 161.974 293.476C157.58 293.481 153.187 293.493 148.793 293.522C113.533 293.749 113.533 293.749 97.0469 289.099C96.3552 288.905 95.6636 288.71 94.951 288.51C62.3252 279.217 34.0396 256.505 17.1992 227.216C9.31274 213.041 4.01818 198.756 1.17188 182.787C1.05136 182.119 0.930829 181.451 0.806649 180.763C0.0827256 176.097 -0.000527604 171.53 0.0190513 166.81C0.0250786 164.923 0.0250786 164.923 0.0312278 162.999C0.0363941 162.042 0.0415604 161.085 0.0468833 160.099Z" fill="white"/>
<path d="M559.309 16.0799C560.644 16.0842 560.644 16.0842 562.007 16.0885C563.017 16.0939 563.017 16.0939 564.047 16.0995C564.117 36.5369 564.17 56.9742 564.202 77.4117C564.218 86.9028 564.239 96.3938 564.273 105.885C564.303 114.164 564.322 122.444 564.329 130.724C564.333 135.101 564.342 139.478 564.364 143.856C564.385 147.99 564.391 152.124 564.386 156.259C564.387 157.763 564.393 159.266 564.404 160.77C564.671 196.908 550.088 230.063 524.797 255.787C503.145 277.237 471.751 293.33 440.744 293.187C440.04 293.179 439.335 293.171 438.609 293.162C437.878 293.157 437.146 293.153 436.393 293.148C434.611 293.137 432.829 293.119 431.047 293.099C430.977 272.662 430.924 252.225 430.891 231.787C430.876 222.296 430.855 212.805 430.821 203.314C430.791 195.034 430.771 186.755 430.765 178.475C430.761 174.098 430.752 169.72 430.73 165.343C430.709 161.209 430.703 157.075 430.708 152.94C430.707 151.436 430.701 149.932 430.689 148.429C430.584 134.153 432.444 120.277 437.109 106.724C437.405 105.855 437.701 104.986 438.006 104.09C449.764 71.0002 474.47 44.3263 505.852 28.868C522.383 21.088 540.974 16.0044 559.309 16.0799Z" fill="white"/>
</svg>
