<svg width="2511" height="3761" viewBox="0 0 2511 3761" fill="none" xmlns="http://www.w3.org/2000/svg">
<path d="M360.026 1438.36C384.193 1438.31 408.359 1438.28 432.526 1438.26C443.749 1438.25 454.972 1438.23 466.195 1438.21C475.985 1438.19 485.776 1438.18 495.566 1438.17C500.742 1438.17 505.918 1438.16 511.094 1438.15C515.983 1438.14 520.872 1438.13 525.76 1438.13C527.539 1438.13 529.317 1438.13 531.095 1438.12C546.949 1438.06 563.159 1438.59 578.588 1442.55C579.451 1442.76 580.313 1442.98 581.202 1443.2C607.054 1449.92 631.226 1461.99 650.807 1480.3C652.783 1482.14 654.815 1483.84 656.901 1485.55C684.911 1510.11 703.359 1550.4 706.246 1587.17C706.396 1589.95 706.518 1592.73 706.624 1595.51C706.664 1596.46 706.705 1597.42 706.747 1598.4C706.845 1600.72 706.938 1603.04 707.026 1605.36C681.538 1605.43 656.05 1605.48 630.562 1605.52C618.726 1605.53 606.89 1605.55 595.054 1605.59C584.73 1605.62 574.406 1605.64 564.082 1605.64C558.623 1605.65 553.163 1605.66 547.704 1605.68C542.55 1605.7 537.396 1605.7 532.242 1605.7C530.365 1605.7 528.488 1605.71 526.611 1605.72C489.162 1605.94 452.214 1594.32 423.026 1570.36C422.475 1569.92 421.924 1569.47 421.356 1569.01C386.945 1541.06 365.753 1501.59 360.288 1457.62C359.951 1453.62 359.997 1449.61 360.01 1445.59C360.011 1444.9 360.012 1444.2 360.013 1443.49C360.016 1441.78 360.021 1440.07 360.026 1438.36Z" fill="#EAC479"/>
<path d="M367 2322.62C391.167 2322.67 415.333 2322.7 439.5 2322.73C450.723 2322.74 461.946 2322.75 473.169 2322.77C482.959 2322.79 492.75 2322.81 502.54 2322.81C507.716 2322.81 512.892 2322.82 518.069 2322.83C522.957 2322.85 527.846 2322.85 532.734 2322.85C534.513 2322.85 536.291 2322.85 538.069 2322.86C553.923 2322.93 570.133 2322.39 585.562 2318.43C586.425 2318.22 587.287 2318 588.176 2317.78C614.028 2311.07 638.2 2298.99 657.781 2280.68C659.757 2278.85 661.79 2277.14 663.875 2275.43C691.885 2250.87 710.333 2210.58 713.22 2173.81C713.371 2171.04 713.493 2168.26 713.598 2165.48C713.638 2164.52 713.679 2163.57 713.721 2162.58C713.819 2160.26 713.912 2157.94 714 2155.62C688.512 2155.55 663.024 2155.5 637.536 2155.47C625.7 2155.45 613.864 2155.43 602.028 2155.4C591.704 2155.37 581.38 2155.35 571.056 2155.34C565.597 2155.34 560.137 2155.33 554.678 2155.3C549.524 2155.28 544.37 2155.28 539.217 2155.28C537.339 2155.28 535.462 2155.28 533.585 2155.26C496.137 2155.04 459.188 2166.66 430 2190.62C429.449 2191.07 428.898 2191.51 428.33 2191.97C393.919 2219.92 372.727 2259.39 367.262 2303.36C366.925 2307.37 366.971 2311.37 366.984 2315.39C366.985 2316.08 366.986 2316.78 366.987 2317.5C366.99 2319.21 366.995 2320.91 367 2322.62Z" fill="#C9612A"/>
<path d="M1798.03 899.361C1823.1 899.291 1848.18 899.238 1873.26 899.206C1884.91 899.19 1896.56 899.169 1908.2 899.135C1918.36 899.105 1928.52 899.086 1938.68 899.079C1944.05 899.075 1949.43 899.066 1954.8 899.044C1959.87 899.023 1964.94 899.017 1970.02 899.022C1971.86 899.021 1973.71 899.015 1975.55 899.004C2002.11 898.844 2026.98 904.056 2051.03 915.361C2051.76 915.707 2052.5 916.052 2053.25 916.408C2068.53 923.733 2081.82 933.646 2094.03 945.361C2094.97 946.239 2095.91 947.117 2096.88 948.021C2109.49 960.003 2119.12 973.918 2127.03 989.361C2127.34 989.978 2127.66 990.595 2127.99 991.231C2138.73 1012.34 2145.14 1035.95 2145.05 1059.69C2145.05 1060.94 2145.04 1062.19 2145.04 1063.48C2145.03 1064.43 2145.03 1065.38 2145.03 1066.36C2120.22 1066.43 2095.42 1066.48 2070.62 1066.52C2059.1 1066.53 2047.59 1066.55 2036.07 1066.59C2026.02 1066.62 2015.97 1066.64 2005.92 1066.64C2000.61 1066.65 1995.3 1066.66 1989.99 1066.68C1984.97 1066.7 1979.95 1066.7 1974.94 1066.7C1973.11 1066.7 1971.29 1066.71 1969.46 1066.72C1922.86 1067 1879.83 1050.56 1846.46 1017.79C1817.43 988.92 1798.41 948.068 1798 906.769C1798 905.889 1798.01 905.009 1798.01 904.102C1798.01 903.212 1798.01 902.321 1798.02 901.403C1798.02 900.729 1798.02 900.055 1798.03 899.361Z" fill="#EAC479"/>
<path d="M1805 2861.62C1830.08 2861.69 1855.16 2861.74 1880.24 2861.78C1891.89 2861.79 1903.53 2861.81 1915.18 2861.85C1925.34 2861.88 1935.5 2861.9 1945.66 2861.9C1951.03 2861.91 1956.4 2861.92 1961.77 2861.94C1966.84 2861.96 1971.92 2861.97 1976.99 2861.96C1978.84 2861.96 1980.68 2861.97 1982.53 2861.98C2009.08 2862.14 2033.95 2856.93 2058 2845.62C2058.74 2845.28 2059.47 2844.93 2060.23 2844.57C2075.5 2837.25 2088.79 2827.34 2101 2815.62C2101.94 2814.74 2102.88 2813.87 2103.85 2812.96C2116.46 2800.98 2126.09 2787.07 2134 2771.62C2134.32 2771 2134.64 2770.39 2134.96 2769.75C2145.7 2748.64 2152.11 2725.04 2152.02 2701.29C2152.02 2700.04 2152.02 2698.79 2152.01 2697.5C2152.01 2696.55 2152 2695.6 2152 2694.62C2127.2 2694.55 2102.4 2694.5 2077.6 2694.47C2066.08 2694.45 2054.56 2694.43 2043.04 2694.4C2033 2694.37 2022.95 2694.35 2012.9 2694.34C2007.59 2694.34 2002.28 2694.33 1996.96 2694.3C1991.95 2694.28 1986.93 2694.28 1981.91 2694.28C1980.09 2694.28 1978.26 2694.28 1976.44 2694.26C1929.84 2693.98 1886.81 2710.42 1853.44 2743.19C1824.4 2772.06 1805.38 2812.91 1804.97 2854.21C1804.98 2855.09 1804.98 2855.97 1804.98 2856.88C1804.99 2857.77 1804.99 2858.66 1804.99 2859.58C1804.99 2860.25 1805 2860.93 1805 2861.62Z" fill="#EAC479"/>
<path d="M1610.85 0.000519202C1612.75 0.000801622 1614.66 0.000642272 1616.56 7.67021e-05C1621.7 -0.000209138 1626.84 0.005653 1631.99 0.0126507C1637.37 0.0189198 1642.75 0.0194908 1648.13 0.0206761C1658.32 0.0237789 1668.5 0.0319781 1678.68 0.0420256C1690.27 0.0532193 1701.87 0.0587054 1713.47 0.063721C1737.31 0.0741616 1761.16 0.0917407 1785 0.114045C1785.02 3.15428 1785.03 6.19439 1785.04 9.23465C1785.05 10.09 1785.05 10.9453 1785.06 11.8266C1785.08 18.1146 1784.6 24.0733 1783.31 30.239C1783.13 31.1559 1782.95 32.0727 1782.76 33.0174C1777.46 58.982 1766.79 83.474 1750 104.114C1749.32 104.953 1749.32 104.953 1748.63 105.809C1720.94 139.813 1681.53 161.441 1637.94 166.643C1629.7 167.443 1621.41 167.245 1613.15 167.228C1611.24 167.227 1609.34 167.227 1607.44 167.228C1602.3 167.228 1597.16 167.222 1592.01 167.215C1586.63 167.209 1581.25 167.209 1575.87 167.207C1565.68 167.204 1555.5 167.196 1545.32 167.186C1533.72 167.175 1522.13 167.169 1510.53 167.164C1486.69 167.154 1462.84 167.136 1439 167.114C1438.99 164.224 1438.98 161.334 1438.97 158.444C1438.97 157.63 1438.96 156.816 1438.96 155.977C1438.95 150.431 1439.2 145.08 1440.19 139.614C1440.32 138.834 1440.46 138.054 1440.59 137.25C1447.76 97.7558 1468.93 60.6008 1501 36.114C1501.91 35.3883 1502.82 34.6626 1503.76 33.9148C1535.08 9.46181 1571.65 -0.0811386 1610.85 0.000519202Z" fill="#EAC479"/>
<path d="M1617.85 3760.74C1619.75 3760.74 1621.66 3760.74 1623.56 3760.74C1628.7 3760.74 1633.84 3760.73 1638.99 3760.72C1644.37 3760.72 1649.75 3760.72 1655.13 3760.72C1665.32 3760.71 1675.5 3760.7 1685.68 3760.69C1697.27 3760.68 1708.87 3760.68 1720.47 3760.67C1744.31 3760.66 1768.16 3760.64 1792 3760.62C1792.02 3757.58 1792.03 3754.54 1792.04 3751.5C1792.05 3750.65 1792.05 3749.79 1792.06 3748.91C1792.08 3742.62 1791.6 3736.66 1790.31 3730.5C1790.13 3729.58 1789.95 3728.66 1789.76 3727.72C1784.46 3701.75 1773.79 3677.26 1757 3656.62C1756.32 3655.78 1756.32 3655.78 1755.63 3654.93C1727.94 3620.92 1688.53 3599.29 1644.94 3594.09C1636.7 3593.29 1628.41 3593.49 1620.15 3593.51C1618.24 3593.51 1616.34 3593.51 1614.44 3593.51C1609.3 3593.51 1604.16 3593.51 1599.01 3593.52C1593.63 3593.53 1588.25 3593.53 1582.87 3593.53C1572.68 3593.53 1562.5 3593.54 1552.32 3593.55C1540.72 3593.56 1529.13 3593.57 1517.53 3593.57C1493.69 3593.58 1469.84 3593.6 1446 3593.62C1445.99 3596.51 1445.98 3599.4 1445.97 3602.29C1445.97 3603.11 1445.96 3603.92 1445.96 3604.76C1445.95 3610.3 1446.2 3615.66 1447.19 3621.12C1447.32 3621.9 1447.46 3622.68 1447.59 3623.49C1454.76 3662.98 1475.93 3700.14 1508 3724.62C1508.91 3725.35 1509.82 3726.07 1510.76 3726.82C1542.08 3751.27 1578.65 3760.82 1617.85 3760.74Z" fill="#EAC479"/>
<path d="M1976.53 1437.89C1978.38 1437.89 1980.24 1437.89 1982.09 1437.89C1987.06 1437.89 1992.03 1437.9 1996.99 1437.91C2002.21 1437.92 2007.42 1437.93 2012.64 1437.93C2022.48 1437.93 2032.33 1437.95 2042.17 1437.97C2053.39 1437.99 2064.62 1438 2075.84 1438.01C2098.89 1438.03 2121.95 1438.07 2145 1438.11C2145.01 1440.5 2145.02 1442.89 2145.03 1445.28C2145.03 1445.95 2145.04 1446.62 2145.04 1447.31C2145.05 1452.71 2144.68 1457.91 2143.88 1463.24C2143.68 1464.56 2143.68 1464.56 2143.48 1465.91C2136.7 1507.84 2113.31 1547.5 2078.92 1572.69C2048 1594.77 2014.19 1605.5 1976.24 1605.34C1974.28 1605.34 1972.33 1605.34 1970.38 1605.34C1965.12 1605.34 1959.86 1605.33 1954.6 1605.32C1949.09 1605.3 1943.57 1605.3 1938.06 1605.3C1927.64 1605.29 1917.23 1605.28 1906.81 1605.26C1894.94 1605.24 1883.07 1605.22 1871.2 1605.21C1846.8 1605.19 1822.4 1605.16 1798 1605.11C1797.99 1603.53 1797.99 1601.95 1797.98 1600.38C1797.98 1599.5 1797.98 1598.62 1797.97 1597.71C1798.34 1560.34 1814.55 1521.49 1839.94 1494.33C1841.77 1492.36 1843.48 1490.32 1845.19 1488.24C1877.97 1450.85 1928.7 1437.68 1976.53 1437.89Z" fill="#C9612A"/>
<path d="M1983.53 2322.85C1985.38 2322.85 1987.24 2322.85 1989.09 2322.85C1994.06 2322.85 1999.03 2322.84 2003.99 2322.82C2009.21 2322.81 2014.42 2322.81 2019.64 2322.81C2029.48 2322.8 2039.33 2322.79 2049.17 2322.77C2060.39 2322.74 2071.62 2322.73 2082.84 2322.72C2105.89 2322.7 2128.95 2322.67 2152 2322.62C2152.01 2320.23 2152.02 2317.84 2152.03 2315.45C2152.03 2314.78 2152.04 2314.11 2152.04 2313.42C2152.05 2308.03 2151.68 2302.82 2150.88 2297.5C2150.68 2296.18 2150.68 2296.18 2150.48 2294.83C2143.7 2252.89 2120.31 2213.24 2085.92 2188.04C2055 2165.97 2021.19 2155.24 1983.24 2155.39C1981.28 2155.4 1979.33 2155.39 1977.38 2155.39C1972.12 2155.39 1966.86 2155.4 1961.6 2155.42C1956.09 2155.43 1950.57 2155.43 1945.06 2155.43C1934.64 2155.44 1924.23 2155.46 1913.81 2155.48C1901.94 2155.5 1890.07 2155.51 1878.2 2155.52C1853.8 2155.54 1829.4 2155.58 1805 2155.62C1804.99 2157.2 1804.99 2158.78 1804.98 2160.36C1804.98 2161.24 1804.98 2162.12 1804.97 2163.03C1805.34 2200.4 1821.55 2239.25 1846.94 2266.4C1848.77 2268.38 1850.48 2270.41 1852.19 2272.5C1884.97 2309.88 1935.7 2323.06 1983.53 2322.85Z" fill="#C9612A"/>
<path d="M1239.33 899.089C1241.21 899.095 1241.21 899.095 1243.12 899.1C1244.07 899.105 1245.02 899.109 1246 899.114C1246.07 924.046 1246.12 948.977 1246.16 973.909C1246.17 985.488 1246.19 997.066 1246.23 1008.64C1246.26 1018.74 1246.28 1028.85 1246.28 1038.95C1246.29 1044.29 1246.3 1049.63 1246.32 1054.97C1246.34 1060.01 1246.34 1065.05 1246.34 1070.1C1246.34 1071.93 1246.35 1073.77 1246.36 1075.6C1246.46 1092.23 1245.14 1109.02 1240.19 1124.99C1239.93 1125.85 1239.67 1126.72 1239.4 1127.61C1226.4 1170.04 1197.76 1205.23 1158.82 1226.61C1135.97 1238.71 1109.8 1246.16 1083.83 1246.12C1082.92 1246.12 1082.02 1246.12 1081.09 1246.12C1080.4 1246.12 1079.71 1246.12 1079 1246.11C1078.93 1221.33 1078.88 1196.55 1078.84 1171.76C1078.83 1160.25 1078.81 1148.74 1078.77 1137.23C1078.74 1127.19 1078.72 1117.15 1078.72 1107.11C1078.71 1101.8 1078.7 1096.49 1078.68 1091.18C1078.48 1040.36 1078.48 1040.36 1084.81 1020.18C1085.07 1019.32 1085.33 1018.45 1085.6 1017.57C1093.8 990.934 1107.52 968.003 1127 948.114C1127.76 947.306 1128.52 946.497 1129.3 945.665C1156.86 916.843 1199.57 898.942 1239.33 899.089Z" fill="#C9612A"/>
<path d="M1246.33 2861.65C1248.21 2861.64 1248.21 2861.64 1250.12 2861.64C1251.07 2861.63 1252.02 2861.63 1253 2861.62C1253.07 2836.69 1253.12 2811.76 1253.16 2786.83C1253.17 2775.25 1253.19 2763.67 1253.23 2752.09C1253.26 2741.99 1253.28 2731.89 1253.28 2721.79C1253.29 2716.45 1253.3 2711.11 1253.32 2705.77C1253.34 2700.73 1253.34 2695.68 1253.34 2690.64C1253.34 2688.8 1253.35 2686.97 1253.36 2685.14C1253.46 2668.51 1252.14 2651.71 1247.19 2635.75C1246.93 2634.88 1246.67 2634.02 1246.4 2633.12C1233.4 2590.7 1204.76 2555.51 1165.82 2534.13C1142.97 2522.03 1116.8 2514.58 1090.83 2514.61C1089.92 2514.62 1089.02 2514.62 1088.09 2514.62C1087.4 2514.62 1086.71 2514.62 1086 2514.62C1085.93 2539.41 1085.88 2564.19 1085.84 2588.97C1085.83 2600.48 1085.81 2611.99 1085.77 2623.5C1085.74 2633.55 1085.72 2643.59 1085.72 2653.63C1085.71 2658.94 1085.7 2664.24 1085.68 2669.55C1085.48 2720.37 1085.48 2720.37 1091.81 2740.56C1092.07 2741.42 1092.33 2742.28 1092.6 2743.17C1100.8 2769.8 1114.52 2792.73 1134 2812.62C1134.76 2813.43 1135.52 2814.24 1136.3 2815.07C1163.86 2843.89 1206.57 2861.79 1246.33 2861.65Z" fill="#C9612A"/>
<path d="M1079 180.114C1104.21 180.044 1129.42 179.991 1154.63 179.959C1166.34 179.943 1178.04 179.922 1189.75 179.888C1199.96 179.858 1210.18 179.838 1220.39 179.832C1225.79 179.828 1231.19 179.819 1236.59 179.797C1241.69 179.776 1246.78 179.77 1251.88 179.775C1253.74 179.774 1255.59 179.768 1257.45 179.756C1273.65 179.66 1289.85 181.044 1305.44 185.739C1306.29 185.992 1307.15 186.245 1308.03 186.506C1349.24 199.186 1384.94 227.363 1405.56 265.407C1417.92 288.891 1426.11 314.698 1426.02 341.442C1426.02 343.042 1426.02 343.042 1426.01 344.674C1426.01 345.479 1426 346.284 1426 347.114C1401.64 347.184 1377.28 347.237 1352.92 347.269C1341.61 347.285 1330.3 347.306 1318.99 347.34C1309.12 347.37 1299.25 347.39 1289.37 347.396C1284.16 347.4 1278.94 347.409 1273.72 347.431C1226.29 347.624 1181.21 343.397 1143 312.114C1142.2 311.462 1142.2 311.462 1141.38 310.797C1124.96 297.402 1111.84 282.317 1101 264.114C1100.66 263.547 1100.32 262.979 1099.97 262.395C1086.64 239.904 1078.88 212.501 1078.98 186.328C1078.98 185.162 1078.98 183.997 1078.99 182.797C1078.99 181.911 1079 181.026 1079 180.114Z" fill="#C9612A"/>
<path d="M1086 3580.62C1111.21 3580.69 1136.42 3580.74 1161.63 3580.78C1173.34 3580.79 1185.04 3580.81 1196.75 3580.85C1206.96 3580.88 1217.18 3580.9 1227.39 3580.9C1232.79 3580.91 1238.19 3580.92 1243.59 3580.94C1248.69 3580.96 1253.78 3580.97 1258.88 3580.96C1260.74 3580.96 1262.59 3580.97 1264.45 3580.98C1280.65 3581.08 1296.85 3579.69 1312.44 3575C1313.29 3574.74 1314.15 3574.49 1315.03 3574.23C1356.24 3561.55 1391.94 3533.37 1412.56 3495.33C1424.92 3471.84 1433.11 3446.04 1433.02 3419.29C1433.02 3417.69 1433.02 3417.69 1433.01 3416.06C1433.01 3415.26 1433 3414.45 1433 3413.62C1408.64 3413.55 1384.28 3413.5 1359.92 3413.47C1348.61 3413.45 1337.3 3413.43 1325.99 3413.4C1316.12 3413.37 1306.25 3413.35 1296.37 3413.34C1291.16 3413.34 1285.94 3413.33 1280.72 3413.3C1233.29 3413.11 1188.21 3417.34 1150 3448.62C1149.2 3449.27 1149.2 3449.27 1148.38 3449.94C1131.96 3463.33 1118.84 3478.42 1108 3496.62C1107.66 3497.19 1107.32 3497.76 1106.97 3498.34C1093.64 3520.83 1085.88 3548.23 1085.98 3574.41C1085.98 3575.57 1085.98 3576.74 1085.99 3577.94C1085.99 3578.82 1086 3579.71 1086 3580.62Z" fill="#C9612A"/>
<path d="M1422.15 539.109C1423.42 539.11 1424.69 539.112 1426 539.114C1426.07 563.751 1426.12 588.387 1426.16 613.023C1426.17 624.465 1426.19 635.906 1426.23 647.348C1426.26 657.33 1426.28 667.313 1426.28 677.296C1426.29 682.572 1426.29 687.848 1426.32 693.125C1426.53 746.948 1418.56 795.786 1379.39 835.691C1378.1 837.012 1376.84 838.363 1375.59 839.716C1364.24 851.663 1350.59 860.644 1336 868.114C1335.38 868.432 1334.77 868.75 1334.13 869.078C1313.24 879.703 1289.71 886.254 1266.2 886.139C1265.16 886.136 1265.16 886.136 1264.09 886.133C1262.4 886.129 1260.7 886.122 1259 886.114C1258.93 861.035 1258.88 835.955 1258.84 810.876C1258.83 799.229 1258.81 787.582 1258.77 775.936C1258.74 765.776 1258.72 755.617 1258.72 745.457C1258.71 740.085 1258.7 734.714 1258.68 729.342C1258.66 724.269 1258.66 719.197 1258.66 714.125C1258.66 712.278 1258.65 710.432 1258.64 708.586C1258.36 661.049 1276.51 619.708 1309.12 585.614C1338.92 556.621 1380.44 539.049 1422.15 539.109Z" fill="#C9612A"/>
<path d="M1429.15 3221.63C1430.42 3221.63 1431.69 3221.62 1433 3221.62C1433.07 3196.99 1433.12 3172.35 1433.16 3147.71C1433.17 3136.27 1433.19 3124.83 1433.23 3113.39C1433.26 3103.41 1433.28 3093.42 1433.28 3083.44C1433.29 3078.16 1433.29 3072.89 1433.32 3067.61C1433.53 3013.79 1425.56 2964.95 1386.39 2925.04C1385.1 2923.72 1383.84 2922.37 1382.59 2921.02C1371.24 2909.07 1357.59 2900.09 1343 2892.62C1342.38 2892.3 1341.77 2891.99 1341.13 2891.66C1320.24 2881.03 1296.71 2874.48 1273.2 2874.6C1272.16 2874.6 1272.16 2874.6 1271.09 2874.6C1269.4 2874.61 1267.7 2874.61 1266 2874.62C1265.93 2899.7 1265.88 2924.78 1265.84 2949.86C1265.83 2961.51 1265.81 2973.15 1265.77 2984.8C1265.74 2994.96 1265.72 3005.12 1265.72 3015.28C1265.71 3020.65 1265.7 3026.02 1265.68 3031.39C1265.66 3036.47 1265.66 3041.54 1265.66 3046.61C1265.66 3048.46 1265.65 3050.3 1265.64 3052.15C1265.36 3099.69 1283.51 3141.03 1316.12 3175.12C1345.92 3204.12 1387.44 3221.69 1429.15 3221.63Z" fill="#C9612A"/>
<path d="M1798 539.114C1822.17 539.067 1846.33 539.032 1870.5 539.01C1881.72 539 1892.95 538.986 1904.17 538.963C1913.96 538.943 1923.75 538.93 1933.54 538.926C1938.72 538.923 1943.89 538.917 1949.07 538.903C1953.96 538.889 1958.85 538.885 1963.73 538.888C1965.51 538.887 1967.29 538.883 1969.07 538.876C1985.57 538.807 2002.17 539.624 2018.25 543.614C2019.28 543.869 2020.32 544.124 2021.39 544.387C2063.28 555.302 2100.12 583.359 2122.39 620.425C2136.1 644.209 2145.08 671.765 2145.02 699.374C2145.01 700.636 2145.01 701.898 2145.01 703.198C2145.01 704.16 2145 705.123 2145 706.114C2119.58 706.208 2094.16 706.278 2068.74 706.321C2056.94 706.342 2045.13 706.37 2033.33 706.416C2023.03 706.456 2012.73 706.482 2002.43 706.49C1996.99 706.496 1991.54 706.508 1986.1 706.537C1941.8 706.767 1941.8 706.767 1924 702.114C1922.73 701.783 1921.45 701.453 1920.14 701.112C1917.23 700.301 1914.41 699.378 1911.56 698.364C1910.08 697.851 1910.08 697.851 1908.56 697.327C1899.98 694.279 1891.95 690.538 1884 686.114C1882.94 685.539 1881.88 684.964 1880.78 684.372C1869.16 677.871 1859.05 669.671 1849.46 660.504C1848.04 659.157 1846.62 657.826 1845.19 656.497C1816.91 629.425 1799.07 588.175 1798 549.114C1797.99 547.388 1797.99 545.661 1797.99 543.935C1798 543.033 1798 542.131 1798 541.201C1798 540.512 1798 539.824 1798 539.114Z" fill="#C9612A"/>
<path d="M1805 3221.62C1829.17 3221.67 1853.33 3221.7 1877.5 3221.73C1888.72 3221.74 1899.95 3221.75 1911.17 3221.77C1920.96 3221.79 1930.75 3221.81 1940.54 3221.81C1945.72 3221.81 1950.89 3221.82 1956.07 3221.83C1960.96 3221.85 1965.85 3221.85 1970.73 3221.85C1972.51 3221.85 1974.29 3221.85 1976.07 3221.86C1992.57 3221.93 2009.17 3221.11 2025.25 3217.12C2026.28 3216.87 2027.32 3216.61 2028.39 3216.35C2070.28 3205.43 2107.12 3177.38 2129.39 3140.31C2143.1 3116.53 2152.08 3088.97 2152.02 3061.36C2152.01 3060.1 2152.01 3058.84 2152.01 3057.54C2152.01 3056.58 2152 3055.61 2152 3054.62C2126.58 3054.53 2101.16 3054.46 2075.74 3054.41C2063.94 3054.39 2052.13 3054.37 2040.33 3054.32C2030.03 3054.28 2019.73 3054.25 2009.43 3054.25C2003.99 3054.24 1998.54 3054.23 1993.1 3054.2C1948.8 3053.97 1948.8 3053.97 1931 3058.62C1929.73 3058.95 1928.45 3059.28 1927.14 3059.62C1924.23 3060.43 1921.41 3061.36 1918.56 3062.37C1917.08 3062.88 1917.08 3062.88 1915.56 3063.41C1906.98 3066.46 1898.95 3070.2 1891 3074.62C1889.94 3075.2 1888.88 3075.77 1887.78 3076.36C1876.16 3082.86 1866.05 3091.06 1856.46 3100.23C1855.04 3101.58 1853.62 3102.91 1852.19 3104.24C1823.91 3131.31 1806.07 3172.56 1805 3211.62C1804.99 3213.35 1804.99 3215.07 1804.99 3216.8C1805 3217.7 1805 3218.61 1805 3219.53C1805 3220.22 1805 3220.91 1805 3221.62Z" fill="#C9612A"/>
<path d="M1978 1079.11C1980.71 1079.1 1983.41 1079.09 1986.12 1079.08C1986.88 1079.07 1987.64 1079.07 1988.42 1079.06C1994.58 1079.05 2000.5 1079.54 2006.56 1080.61C2007.56 1080.79 2008.56 1080.96 2009.59 1081.14C2027.02 1084.4 2043.54 1090.51 2059 1099.11C2060.06 1099.69 2061.12 1100.26 2062.22 1100.86C2072.72 1106.73 2082 1113.98 2090.82 1122.13C2092.57 1123.72 2094.33 1125.21 2096.19 1126.68C2125.24 1151.85 2141.69 1193.64 2145 1231.11C2145.12 1233.94 2145.13 1236.77 2145.12 1239.6C2145.12 1240.81 2145.12 1240.81 2145.12 1242.04C2145.12 1244.7 2145.12 1247.37 2145.11 1250.04C2145.11 1251.96 2145.11 1253.88 2145.11 1255.8C2145.11 1261 2145.11 1266.2 2145.1 1271.4C2145.1 1276.84 2145.09 1282.29 2145.09 1287.73C2145.09 1298.02 2145.08 1308.32 2145.07 1318.61C2145.06 1330.34 2145.06 1342.06 2145.05 1353.78C2145.04 1377.89 2145.02 1402 2145 1426.11C2142.02 1425.98 2139.04 1425.83 2136.05 1425.69C2135.22 1425.65 2134.39 1425.61 2133.53 1425.57C2111.8 1424.49 2090.5 1418.71 2071 1409.11C2070.37 1408.81 2069.74 1408.5 2069.09 1408.18C2030.53 1389.23 2001.07 1354.82 1986.75 1314.49C1979.92 1294.17 1977.68 1273.9 1977.77 1252.58C1977.77 1250.68 1977.77 1248.77 1977.77 1246.87C1977.77 1241.75 1977.78 1236.64 1977.8 1231.52C1977.81 1226.15 1977.81 1220.79 1977.81 1215.42C1977.82 1205.28 1977.84 1195.14 1977.86 1185C1977.88 1173.45 1977.89 1161.9 1977.9 1150.34C1977.92 1126.6 1977.96 1102.86 1978 1079.11Z" fill="#C9612A"/>
<path d="M1985 2681.62C1987.71 2681.64 1990.41 2681.65 1993.12 2681.66C1993.88 2681.66 1994.64 2681.67 1995.42 2681.67C2001.58 2681.69 2007.5 2681.19 2013.56 2680.12C2014.56 2679.95 2015.56 2679.78 2016.59 2679.6C2034.02 2676.34 2050.54 2670.22 2066 2661.62C2067.06 2661.05 2068.12 2660.47 2069.22 2659.88C2079.72 2654.01 2089 2646.76 2097.82 2638.61C2099.57 2637.01 2101.33 2635.52 2103.19 2634.06C2132.24 2608.88 2148.69 2567.09 2152 2529.62C2152.12 2526.79 2152.13 2523.97 2152.12 2521.14C2152.12 2519.93 2152.12 2519.93 2152.12 2518.7C2152.12 2516.03 2152.12 2513.37 2152.11 2510.7C2152.11 2508.78 2152.11 2506.85 2152.11 2504.93C2152.11 2499.73 2152.11 2494.53 2152.1 2489.33C2152.1 2483.89 2152.09 2478.45 2152.09 2473.01C2152.09 2462.71 2152.08 2452.42 2152.07 2442.12C2152.06 2430.4 2152.06 2418.68 2152.05 2406.95C2152.04 2382.84 2152.02 2358.73 2152 2334.62C2149.02 2334.76 2146.04 2334.9 2143.05 2335.05C2142.22 2335.09 2141.39 2335.12 2140.53 2335.16C2118.8 2336.24 2097.5 2342.03 2078 2351.62C2077.37 2351.93 2076.74 2352.24 2076.09 2352.55C2037.53 2371.5 2008.07 2405.91 1993.75 2446.25C1986.92 2466.57 1984.68 2486.84 1984.77 2508.15C1984.77 2510.06 1984.77 2511.96 1984.77 2513.87C1984.77 2518.98 1984.78 2524.1 1984.8 2529.22C1984.81 2534.58 1984.81 2539.95 1984.81 2545.32C1984.82 2555.45 1984.84 2565.59 1984.86 2575.73C1984.88 2587.29 1984.89 2598.84 1984.9 2610.39C1984.92 2634.13 1984.96 2657.88 1985 2681.62Z" fill="#C9612A"/>
<path d="M1439 719.114C1440.74 719.107 1442.49 719.102 1444.23 719.098C1445.2 719.095 1446.18 719.092 1447.18 719.088C1491.47 719.489 1531.65 741.908 1562.34 772.442C1594.67 806.822 1606.43 851.608 1606.23 897.642C1606.23 899.497 1606.23 901.353 1606.23 903.208C1606.23 908.173 1606.22 913.139 1606.2 918.104C1606.19 923.32 1606.19 928.536 1606.19 933.751C1606.18 943.596 1606.16 953.441 1606.14 963.286C1606.12 974.508 1606.11 985.729 1606.1 996.951C1606.08 1020.01 1606.04 1043.06 1606 1066.11C1603.95 1066.13 1601.89 1066.14 1599.84 1066.14C1598.69 1066.15 1597.55 1066.16 1596.37 1066.16C1591.65 1066.1 1587.05 1065.6 1582.38 1064.93C1581.44 1064.79 1580.5 1064.66 1579.53 1064.52C1542.54 1058.93 1511.2 1041.31 1485 1015.11C1484.39 1014.55 1483.78 1013.98 1483.15 1013.4C1457.75 989.571 1440.46 949.7 1438.91 915.081C1438.88 912.932 1438.87 910.785 1438.88 908.635C1438.88 907.82 1438.88 907.004 1438.88 906.164C1438.88 903.453 1438.88 900.741 1438.89 898.03C1438.89 896.078 1438.89 894.126 1438.89 892.174C1438.89 886.89 1438.89 881.605 1438.9 876.321C1438.9 870.793 1438.91 865.265 1438.91 859.737C1438.91 849.275 1438.92 838.814 1438.93 828.352C1438.94 816.439 1438.94 804.526 1438.95 792.613C1438.96 768.114 1438.98 743.614 1439 719.114Z" fill="#C9612A"/>
<path d="M1446 3041.62C1447.74 3041.63 1449.49 3041.63 1451.23 3041.64C1452.2 3041.64 1453.18 3041.64 1454.18 3041.65C1498.47 3041.25 1538.65 3018.83 1569.34 2988.29C1601.67 2953.91 1613.43 2909.13 1613.23 2863.09C1613.23 2861.24 1613.23 2859.38 1613.23 2857.53C1613.23 2852.56 1613.22 2847.6 1613.2 2842.63C1613.19 2837.42 1613.19 2832.2 1613.19 2826.98C1613.18 2817.14 1613.16 2807.29 1613.14 2797.45C1613.12 2786.23 1613.11 2775.01 1613.1 2763.79C1613.08 2740.73 1613.04 2717.68 1613 2694.62C1610.95 2694.61 1608.89 2694.6 1606.84 2694.59C1605.69 2694.59 1604.55 2694.58 1603.37 2694.57C1598.65 2694.64 1594.05 2695.14 1589.38 2695.81C1588.44 2695.94 1587.5 2696.08 1586.53 2696.21C1549.54 2701.81 1518.2 2719.42 1492 2745.62C1491.39 2746.19 1490.78 2746.75 1490.15 2747.33C1464.75 2771.16 1447.46 2811.04 1445.91 2845.65C1445.88 2847.8 1445.87 2849.95 1445.88 2852.1C1445.88 2852.92 1445.88 2853.73 1445.88 2854.57C1445.88 2857.28 1445.88 2859.99 1445.89 2862.71C1445.89 2864.66 1445.89 2866.61 1445.89 2868.56C1445.89 2873.85 1445.89 2879.13 1445.9 2884.42C1445.9 2889.94 1445.91 2895.47 1445.91 2901C1445.91 2911.46 1445.92 2921.92 1445.93 2932.38C1445.94 2944.3 1445.94 2956.21 1445.95 2968.12C1445.96 2992.62 1445.98 3017.12 1446 3041.62Z" fill="#C9612A"/>
<path d="M1079 1259.11C1104.57 1259.02 1130.13 1258.95 1155.7 1258.91C1167.57 1258.89 1179.45 1258.86 1191.32 1258.81C1201.68 1258.77 1212.03 1258.75 1222.39 1258.74C1227.87 1258.73 1233.34 1258.72 1238.82 1258.69C1243.99 1258.66 1249.16 1258.66 1254.34 1258.66C1256.22 1258.66 1258.1 1258.65 1259.98 1258.64C1304.73 1258.29 1345.19 1276.14 1377.5 1306.64C1380.88 1309.99 1384.02 1313.4 1387 1317.11C1387.77 1318.06 1388.54 1319 1389.33 1319.97C1411.83 1348.05 1426.14 1384.15 1426.02 1420.38C1426.02 1421.46 1426.01 1422.53 1426.01 1423.64C1426.01 1424.46 1426 1425.27 1426 1426.11C1402.55 1426.16 1379.11 1426.2 1355.66 1426.22C1344.77 1426.23 1333.89 1426.24 1323 1426.27C1313.49 1426.29 1303.99 1426.3 1294.49 1426.3C1289.47 1426.3 1284.45 1426.31 1279.43 1426.33C1220.01 1426.49 1168.66 1418.54 1124.81 1374.99C1100.08 1349.6 1085.13 1316.55 1080.19 1281.68C1080.06 1280.8 1079.94 1279.93 1079.81 1279.02C1079.2 1274.25 1078.94 1269.59 1078.97 1264.78C1078.97 1263.72 1078.98 1262.65 1078.98 1261.55C1078.99 1260.75 1078.99 1259.94 1079 1259.11Z" fill="#C9612A"/>
<path d="M1086 2501.62C1111.57 2501.72 1137.13 2501.79 1162.7 2501.83C1174.57 2501.85 1186.45 2501.88 1198.32 2501.92C1208.68 2501.96 1219.03 2501.99 1229.39 2502C1234.87 2502 1240.34 2502.02 1245.82 2502.04C1250.99 2502.07 1256.16 2502.08 1261.34 2502.07C1263.22 2502.08 1265.1 2502.08 1266.98 2502.1C1311.73 2502.45 1352.19 2484.6 1384.5 2454.09C1387.88 2450.75 1391.02 2447.33 1394 2443.62C1394.77 2442.68 1395.54 2441.74 1396.33 2440.77C1418.83 2412.68 1433.14 2376.58 1433.02 2340.36C1433.02 2339.28 1433.01 2338.2 1433.01 2337.1C1433.01 2336.28 1433 2335.46 1433 2334.62C1409.55 2334.57 1386.11 2334.54 1362.66 2334.52C1351.77 2334.51 1340.89 2334.49 1330 2334.47C1320.49 2334.45 1310.99 2334.44 1301.49 2334.43C1296.47 2334.43 1291.45 2334.42 1286.43 2334.41C1227.01 2334.24 1175.66 2342.19 1131.81 2385.74C1107.08 2411.13 1092.13 2444.19 1087.19 2479.06C1087.06 2479.93 1086.94 2480.81 1086.81 2481.71C1086.2 2486.48 1085.94 2491.14 1085.97 2495.95C1085.97 2497.02 1085.98 2498.09 1085.98 2499.18C1085.99 2499.99 1085.99 2500.79 1086 2501.62Z" fill="#C9612A"/>
<path d="M890.315 1079.02C892.249 1079.02 894.183 1079.02 896.117 1079.01C901.298 1079.01 906.478 1079.03 911.659 1079.05C917.098 1079.07 922.538 1079.07 927.978 1079.08C938.248 1079.09 948.518 1079.11 958.788 1079.14C970.493 1079.17 982.198 1079.19 993.904 1079.21C1017.95 1079.24 1042 1079.29 1066.05 1079.36C1066.06 1082.08 1066.07 1084.81 1066.08 1087.54C1066.08 1088.31 1066.09 1089.08 1066.09 1089.87C1066.1 1095.2 1065.85 1100.35 1064.93 1105.61C1064.8 1106.38 1064.67 1107.16 1064.53 1107.96C1058.47 1141.5 1043.43 1170.69 1020.05 1195.36C1019.21 1196.25 1018.37 1197.15 1017.5 1198.07C989.077 1227.44 947.899 1245.28 907.053 1246.41C901.483 1246.5 895.912 1246.48 890.341 1246.47C888.477 1246.47 886.613 1246.47 884.749 1246.47C879.723 1246.47 874.697 1246.46 869.671 1246.46C864.406 1246.45 859.141 1246.45 853.876 1246.45C843.921 1246.45 833.966 1246.44 824.011 1246.43C812.671 1246.42 801.331 1246.41 789.992 1246.41C766.679 1246.4 743.366 1246.38 720.053 1246.36C720.035 1243.15 720.025 1239.94 720.015 1236.73C720.011 1235.82 720.006 1234.92 720 1233.99C719.987 1227.73 720.305 1221.75 721.553 1215.61C721.726 1214.71 721.899 1213.82 722.077 1212.9C730.995 1169.94 756.491 1130.86 793.193 1106.55C807.58 1097.3 823.015 1089.89 839.428 1085.04C840.574 1084.7 840.574 1084.7 841.743 1084.35C857.668 1079.92 873.881 1078.91 890.315 1079.02Z" fill="#F2D9AB"/>
<path d="M897.263 2681.96C899.197 2681.96 901.13 2681.96 903.064 2681.96C908.245 2681.96 913.425 2681.95 918.606 2681.93C924.046 2681.91 929.485 2681.91 934.925 2681.9C945.195 2681.89 955.465 2681.87 965.735 2681.84C977.44 2681.8 989.146 2681.79 1000.85 2681.77C1024.9 2681.74 1048.95 2681.69 1073 2681.62C1073.01 2678.89 1073.02 2676.17 1073.03 2673.44C1073.03 2672.67 1073.04 2671.9 1073.04 2671.11C1073.05 2665.78 1072.8 2660.63 1071.87 2655.37C1071.74 2654.6 1071.61 2653.82 1071.48 2653.02C1065.42 2619.48 1050.38 2590.29 1027 2565.62C1026.16 2564.73 1025.32 2563.83 1024.45 2562.91C996.024 2533.54 954.847 2515.7 914.001 2514.57C908.43 2514.48 902.859 2514.5 897.288 2514.51C895.424 2514.51 893.56 2514.51 891.697 2514.51C886.671 2514.51 881.645 2514.51 876.619 2514.52C871.353 2514.53 866.088 2514.53 860.823 2514.53C850.868 2514.53 840.913 2514.54 830.958 2514.55C819.618 2514.56 808.279 2514.57 796.939 2514.57C773.626 2514.58 750.313 2514.6 727 2514.62C726.982 2517.83 726.972 2521.04 726.963 2524.25C726.958 2525.16 726.953 2526.06 726.948 2526.99C726.934 2533.25 727.252 2539.23 728.5 2545.37C728.673 2546.26 728.846 2547.16 729.024 2548.08C737.942 2591.04 763.438 2630.12 800.14 2654.43C814.527 2663.67 829.962 2671.09 846.375 2675.93C847.521 2676.28 847.521 2676.28 848.69 2676.63C864.615 2681.05 880.828 2682.07 897.263 2681.96Z" fill="#C9612A"/>
<path d="M156.397 1258.99C157.215 1258.99 158.034 1258.99 158.877 1258.99C161.606 1258.99 164.334 1258.99 167.062 1259C169.024 1259 170.985 1259 172.947 1259C178.263 1259 183.578 1259.01 188.894 1259.01C194.452 1259.02 200.011 1259.02 205.57 1259.02C216.092 1259.02 226.613 1259.03 237.135 1259.04C249.116 1259.05 261.096 1259.06 273.077 1259.06C297.718 1259.07 322.359 1259.09 347 1259.11C347.012 1261.51 347.021 1263.9 347.028 1266.3C347.032 1266.97 347.035 1267.64 347.039 1268.33C347.05 1273.56 346.705 1278.58 345.875 1283.74C345.744 1284.57 345.614 1285.4 345.479 1286.25C338.124 1329.78 314.026 1369.05 278.25 1394.99C243.494 1419.34 205.808 1426.32 164.271 1426.23C162.466 1426.23 160.66 1426.23 158.855 1426.23C154.011 1426.23 149.167 1426.22 144.323 1426.22C139.24 1426.21 134.156 1426.21 129.073 1426.21C119.472 1426.2 109.871 1426.2 100.271 1426.19C89.3297 1426.17 78.3888 1426.17 67.4479 1426.16C44.9652 1426.15 22.4826 1426.14 0 1426.11C0.147883 1422.74 0.300798 1419.37 0.45459 1416C0.517001 1414.57 0.517001 1414.57 0.580673 1413.12C0.876669 1406.7 1.38323 1400.43 2.625 1394.11C2.79685 1393.22 2.9687 1392.32 3.14575 1391.39C9.42652 1360.52 24.3536 1332.91 46 1310.11C46.4689 1309.61 46.9378 1309.11 47.4209 1308.59C74.6336 1279.64 116.151 1258.84 156.397 1258.99Z" fill="#C9612A"/>
<path d="M720 719.114C744.506 719.044 769.012 718.991 793.518 718.959C804.899 718.943 816.28 718.922 827.661 718.888C837.591 718.858 847.521 718.838 857.451 718.832C862.699 718.828 867.948 718.819 873.196 718.797C919.583 718.61 961.739 723.43 1000 752.114C1000.89 752.775 1001.77 753.437 1002.68 754.118C1020.65 768.183 1034.96 785.222 1046 805.114C1046.35 805.736 1046.7 806.358 1047.05 806.999C1058.81 828.308 1066.34 853.674 1066.06 878.114C1066.06 878.889 1066.05 879.664 1066.05 880.462C1066.04 882.346 1066.02 884.23 1066 886.114C1040.92 886.184 1015.84 886.237 990.762 886.27C979.115 886.285 967.469 886.306 955.822 886.34C945.662 886.37 935.503 886.39 925.343 886.396C919.972 886.4 914.6 886.409 909.228 886.431C904.156 886.452 899.083 886.458 894.011 886.453C892.165 886.454 890.319 886.46 888.473 886.472C843.175 886.743 803.429 870.251 770 840.114C769.201 839.4 768.402 838.686 767.578 837.95C741.018 812.843 721.14 772.533 719.92 735.686C719.902 733.161 719.913 730.639 719.938 728.114C719.942 727.244 719.947 726.374 719.951 725.477C719.963 723.356 719.981 721.235 720 719.114Z" fill="#C9612A"/>
<path d="M727 3041.62C751.506 3041.69 776.012 3041.74 800.518 3041.78C811.899 3041.79 823.28 3041.81 834.661 3041.85C844.591 3041.88 854.521 3041.9 864.451 3041.9C869.699 3041.91 874.948 3041.92 880.196 3041.94C926.583 3042.13 968.739 3037.31 1007 3008.62C1007.89 3007.96 1008.77 3007.3 1009.68 3006.62C1027.65 2992.55 1041.96 2975.51 1053 2955.62C1053.35 2955 1053.7 2954.38 1054.05 2953.74C1065.81 2932.43 1073.34 2907.06 1073.06 2882.62C1073.06 2881.85 1073.05 2881.07 1073.05 2880.27C1073.04 2878.39 1073.02 2876.51 1073 2874.62C1047.92 2874.55 1022.84 2874.5 997.762 2874.47C986.115 2874.45 974.469 2874.43 962.822 2874.4C952.662 2874.37 942.503 2874.35 932.343 2874.34C926.972 2874.34 921.6 2874.33 916.228 2874.3C911.156 2874.28 906.083 2874.28 901.011 2874.28C899.165 2874.28 897.319 2874.28 895.473 2874.26C850.175 2873.99 810.429 2890.48 777 2920.62C776.201 2921.34 775.402 2922.05 774.578 2922.79C748.018 2947.89 728.14 2988.2 726.92 3025.05C726.902 3027.57 726.913 3030.1 726.938 3032.62C726.942 3033.49 726.947 3034.36 726.951 3035.26C726.963 3037.38 726.981 3039.5 727 3041.62Z" fill="#EAC479"/>
<path d="M1439 1079.11C1464.21 1079.04 1489.42 1078.99 1514.63 1078.96C1526.34 1078.94 1538.04 1078.92 1549.75 1078.89C1559.96 1078.86 1570.18 1078.84 1580.39 1078.83C1585.79 1078.83 1591.19 1078.82 1596.59 1078.8C1601.69 1078.78 1606.78 1078.77 1611.88 1078.77C1613.74 1078.77 1615.59 1078.77 1617.45 1078.76C1633.73 1078.66 1649.96 1080.08 1665.62 1084.8C1666.92 1085.18 1666.92 1085.18 1668.24 1085.57C1709.82 1098.33 1745.65 1127.87 1766.02 1166.24C1777.55 1188.31 1785.31 1212 1785.06 1237.11C1785.06 1237.98 1785.05 1238.85 1785.05 1239.75C1785.04 1241.87 1785.02 1243.99 1785 1246.11C1760.69 1246.16 1736.37 1246.2 1712.06 1246.22C1700.77 1246.23 1689.47 1246.24 1678.18 1246.27C1668.33 1246.29 1658.48 1246.3 1648.63 1246.3C1643.43 1246.3 1638.22 1246.31 1633.01 1246.33C1628.09 1246.34 1623.18 1246.34 1618.26 1246.34C1616.47 1246.34 1614.68 1246.34 1612.89 1246.35C1597.4 1246.42 1581.72 1245.78 1566.62 1241.99C1565.77 1241.78 1564.91 1241.57 1564.02 1241.35C1535.44 1233.96 1510.08 1219.72 1489 1199.11C1488.09 1198.27 1487.18 1197.42 1486.24 1196.54C1461.06 1172.51 1446.1 1139.72 1440.25 1105.74C1440.12 1105.03 1439.99 1104.33 1439.86 1103.6C1439 1098.15 1438.94 1092.79 1438.97 1087.28C1438.97 1086.5 1438.97 1085.71 1438.97 1084.9C1438.98 1082.97 1438.99 1081.04 1439 1079.11Z" fill="#C9612A"/>
<path d="M1446 2681.62C1471.21 2681.69 1496.42 2681.74 1521.63 2681.78C1533.34 2681.79 1545.04 2681.81 1556.75 2681.85C1566.96 2681.88 1577.18 2681.9 1587.39 2681.9C1592.79 2681.91 1598.19 2681.92 1603.59 2681.94C1608.69 2681.96 1613.78 2681.97 1618.88 2681.96C1620.74 2681.96 1622.59 2681.97 1624.45 2681.98C1640.73 2682.08 1656.96 2680.66 1672.62 2675.93C1673.92 2675.55 1673.92 2675.55 1675.24 2675.16C1716.82 2662.41 1752.65 2632.87 1773.02 2594.49C1784.55 2572.43 1792.31 2548.74 1792.06 2523.62C1792.06 2522.75 1792.05 2521.88 1792.05 2520.98C1792.04 2518.86 1792.02 2516.74 1792 2514.62C1767.69 2514.57 1743.37 2514.54 1719.06 2514.52C1707.77 2514.51 1696.47 2514.49 1685.18 2514.47C1675.33 2514.45 1665.48 2514.44 1655.63 2514.43C1650.43 2514.43 1645.22 2514.42 1640.01 2514.41C1635.09 2514.4 1630.18 2514.39 1625.26 2514.4C1623.47 2514.39 1621.68 2514.39 1619.89 2514.38C1604.4 2514.32 1588.72 2514.96 1573.62 2518.75C1572.77 2518.96 1571.91 2519.17 1571.02 2519.39C1542.44 2526.77 1517.08 2541.02 1496 2561.62C1495.09 2562.47 1494.18 2563.32 1493.24 2564.19C1468.06 2588.23 1453.1 2621.01 1447.25 2655C1447.12 2655.7 1446.99 2656.41 1446.86 2657.14C1446 2662.59 1445.94 2667.95 1445.97 2673.45C1445.97 2674.24 1445.97 2675.03 1445.97 2675.84C1445.98 2677.77 1445.99 2679.69 1446 2681.62Z" fill="#EAC479"/>
<path d="M1623.41 2322.85C1625.27 2322.85 1627.12 2322.85 1628.98 2322.85C1633.95 2322.85 1638.92 2322.84 1643.89 2322.82C1649.11 2322.81 1654.33 2322.81 1659.54 2322.81C1669.4 2322.8 1679.25 2322.79 1689.1 2322.77C1700.33 2322.74 1711.56 2322.73 1722.79 2322.72C1745.86 2322.7 1768.93 2322.67 1792 2322.62C1792.03 2319.64 1792.05 2316.66 1792.07 2313.68C1792.08 2312.84 1792.09 2312.01 1792.1 2311.16C1792.19 2289.62 1785.44 2267.81 1776 2248.62C1775.69 2247.99 1775.39 2247.36 1775.07 2246.71C1756.58 2209.09 1722.92 2178.96 1683.46 2164.7C1667.7 2159.4 1651.25 2155.44 1634.56 2155.5C1633.34 2155.5 1633.34 2155.5 1632.1 2155.5C1629.4 2155.5 1626.71 2155.5 1624.01 2155.51C1622.07 2155.51 1620.12 2155.51 1618.18 2155.51C1612.92 2155.51 1607.67 2155.51 1602.41 2155.52C1596.91 2155.53 1591.41 2155.53 1585.91 2155.53C1575.5 2155.53 1565.09 2155.54 1554.68 2155.55C1542.83 2155.56 1530.98 2155.57 1519.13 2155.57C1494.75 2155.58 1470.38 2155.6 1446 2155.62C1445.98 2158.33 1445.97 2161.04 1445.96 2163.74C1445.96 2164.5 1445.95 2165.26 1445.95 2166.05C1445.93 2172.2 1446.43 2178.12 1447.5 2184.18C1447.67 2185.18 1447.85 2186.18 1448.02 2187.22C1451.28 2204.61 1457.34 2221.22 1466 2236.62C1466.5 2237.55 1466.5 2237.55 1467.02 2238.49C1481.33 2264.62 1503.3 2285.83 1529 2300.62C1529.57 2300.95 1530.14 2301.29 1530.72 2301.63C1544.34 2309.52 1558.69 2314.84 1574 2318.43C1574.82 2318.63 1575.63 2318.82 1576.47 2319.02C1591.92 2322.41 1607.67 2322.92 1623.41 2322.85Z" fill="#C9612A"/>
<path d="M1242.15 1438.11C1244.06 1438.11 1244.06 1438.11 1246 1438.11C1246.07 1463.19 1246.12 1488.27 1246.16 1513.35C1246.17 1525 1246.19 1536.65 1246.23 1548.29C1246.26 1558.45 1246.28 1568.61 1246.28 1578.77C1246.29 1584.14 1246.3 1589.51 1246.32 1594.89C1246.34 1599.96 1246.34 1605.03 1246.34 1610.1C1246.34 1611.95 1246.35 1613.8 1246.36 1615.64C1246.51 1640.34 1242.25 1664.53 1232 1687.11C1231.56 1688.08 1231.56 1688.08 1231.11 1689.07C1212.79 1728.82 1178.92 1760.11 1137.93 1775.4C1130.4 1778.08 1122.77 1780.25 1115 1782.11C1113.54 1782.48 1113.54 1782.48 1112.05 1782.86C1104.94 1784.36 1097.83 1784.2 1090.6 1784.16C1089.49 1784.15 1088.37 1784.15 1087.22 1784.15C1084.48 1784.14 1081.74 1784.13 1079 1784.11C1078.93 1759.59 1078.88 1735.07 1078.84 1710.54C1078.83 1699.16 1078.81 1687.77 1078.77 1676.38C1078.74 1666.44 1078.72 1656.51 1078.72 1646.57C1078.71 1641.32 1078.71 1636.06 1078.68 1630.81C1078.49 1584.03 1083.19 1539.73 1114 1502.11C1114.44 1501.57 1114.88 1501.03 1115.33 1500.48C1143.09 1466.55 1182.32 1443.95 1226.2 1439.06C1231.53 1438.53 1236.79 1438.1 1242.15 1438.11Z" fill="#C9612A"/>
<path d="M1249.2 2322.87C1251.11 2322.87 1251.11 2322.87 1253.05 2322.86C1253.12 2297.79 1253.18 2272.71 1253.21 2247.63C1253.22 2235.98 1253.24 2224.33 1253.28 2212.69C1253.31 2202.53 1253.33 2192.37 1253.34 2182.21C1253.34 2176.84 1253.35 2171.46 1253.37 2166.09C1253.39 2161.02 1253.4 2155.95 1253.39 2150.87C1253.39 2149.03 1253.4 2147.18 1253.41 2145.34C1253.56 2120.64 1249.3 2096.45 1239.05 2073.86C1238.61 2072.9 1238.61 2072.9 1238.17 2071.91C1219.85 2032.16 1185.97 2000.86 1144.99 1985.58C1137.45 1982.9 1129.83 1980.73 1122.05 1978.86C1120.6 1978.5 1120.6 1978.5 1119.11 1978.12C1111.99 1976.61 1104.89 1976.78 1097.65 1976.82C1096.54 1976.82 1095.42 1976.83 1094.27 1976.83C1091.53 1976.84 1088.79 1976.85 1086.05 1976.86C1085.98 2001.39 1085.93 2025.91 1085.9 2050.43C1085.88 2061.82 1085.86 2073.21 1085.83 2084.6C1085.8 2094.54 1085.78 2104.47 1085.77 2114.41C1085.77 2119.66 1085.76 2124.91 1085.74 2130.17C1085.55 2176.95 1090.24 2221.24 1121.05 2258.86C1121.49 2259.4 1121.93 2259.94 1122.39 2260.5C1150.14 2294.43 1189.37 2317.03 1233.25 2321.92C1238.58 2322.45 1243.85 2322.88 1249.2 2322.87Z" fill="#F2D9AB"/>
<path d="M1595.48 360.003C1596.29 360.002 1597.11 360.001 1597.95 360C1600.66 359.999 1603.37 360.004 1606.08 360.01C1608.04 360.01 1609.99 360.01 1611.94 360.009C1617.22 360.009 1622.51 360.015 1627.79 360.022C1633.32 360.028 1638.85 360.029 1644.38 360.03C1654.84 360.033 1665.3 360.041 1675.76 360.051C1687.68 360.062 1699.59 360.068 1711.5 360.073C1736 360.083 1760.5 360.101 1785 360.123C1785.01 363.015 1785.02 365.906 1785.03 368.797C1785.03 369.612 1785.04 370.427 1785.04 371.267C1785.05 376.76 1784.84 382.079 1783.88 387.498C1783.74 388.27 1783.61 389.042 1783.48 389.837C1777.52 422.665 1762.04 452.124 1739 476.123C1738.16 477.014 1737.32 477.905 1736.46 478.822C1721.99 493.792 1704.8 504.362 1686 513.123C1684.85 513.659 1683.71 514.196 1682.53 514.748C1674.87 518.063 1667.08 520.336 1659 522.373C1658.06 522.62 1657.12 522.866 1656.15 523.12C1632.54 528.752 1607.6 527.396 1583.51 527.326C1578.42 527.313 1573.32 527.312 1568.23 527.31C1558.62 527.304 1549 527.287 1539.39 527.267C1528.44 527.245 1517.48 527.234 1506.52 527.224C1484.01 527.203 1461.51 527.168 1439 527.123C1438.99 524.231 1438.98 521.339 1438.97 518.447C1438.97 517.631 1438.97 516.816 1438.96 515.976C1438.95 510.504 1439.16 505.208 1440.13 499.811C1440.26 499.042 1440.39 498.273 1440.52 497.481C1443.32 482.02 1448.07 467.214 1455 453.123C1455.31 452.492 1455.61 451.861 1455.93 451.211C1474.96 412.504 1509.5 382.693 1550.04 368.268C1564.72 363.334 1579.93 359.942 1595.48 360.003Z" fill="#F2D9AB"/>
<path d="M1602.48 3400.74C1603.29 3400.74 1604.11 3400.74 1604.95 3400.74C1607.66 3400.75 1610.37 3400.74 1613.08 3400.74C1615.04 3400.73 1616.99 3400.73 1618.94 3400.74C1624.22 3400.74 1629.51 3400.73 1634.79 3400.72C1640.32 3400.72 1645.85 3400.72 1651.38 3400.71C1661.84 3400.71 1672.3 3400.7 1682.76 3400.69C1694.68 3400.68 1706.59 3400.68 1718.5 3400.67C1743 3400.66 1767.5 3400.64 1792 3400.62C1792.01 3397.73 1792.02 3394.84 1792.03 3391.95C1792.03 3391.13 1792.04 3390.32 1792.04 3389.48C1792.05 3383.98 1791.84 3378.67 1790.88 3373.25C1790.74 3372.47 1790.61 3371.7 1790.48 3370.91C1784.52 3338.08 1769.04 3308.62 1746 3284.62C1745.16 3283.73 1744.32 3282.84 1743.46 3281.92C1728.99 3266.95 1711.8 3256.38 1693 3247.62C1691.85 3247.09 1690.71 3246.55 1689.53 3246C1681.87 3242.68 1674.08 3240.41 1666 3238.37C1665.06 3238.13 1664.12 3237.88 1663.15 3237.62C1639.54 3231.99 1614.6 3233.35 1590.51 3233.42C1585.42 3233.43 1580.32 3233.43 1575.23 3233.43C1565.62 3233.44 1556 3233.46 1546.39 3233.48C1535.44 3233.5 1524.48 3233.51 1513.52 3233.52C1491.01 3233.54 1468.51 3233.58 1446 3233.62C1445.99 3236.51 1445.98 3239.41 1445.97 3242.3C1445.97 3243.11 1445.97 3243.93 1445.96 3244.77C1445.95 3250.24 1446.16 3255.54 1447.13 3260.93C1447.26 3261.7 1447.39 3262.47 1447.52 3263.26C1450.32 3278.72 1455.07 3293.53 1462 3307.62C1462.31 3308.25 1462.61 3308.88 1462.93 3309.53C1481.96 3348.24 1516.5 3378.05 1557.04 3392.48C1571.72 3397.41 1586.93 3400.8 1602.48 3400.74Z" fill="#C9612A"/>
<path d="M2331.58 719.001C2333.45 719.001 2335.32 719.001 2337.2 719C2342.26 719 2347.32 719.006 2352.38 719.013C2357.68 719.019 2362.98 719.019 2368.28 719.021C2378.3 719.024 2388.32 719.032 2398.34 719.042C2409.76 719.053 2421.17 719.059 2432.59 719.064C2456.06 719.074 2479.53 719.092 2503 719.114C2503.08 723.503 2503.12 727.892 2503.16 732.282C2503.19 733.506 2503.21 734.73 2503.23 735.991C2503.35 753.749 2498.49 771.079 2491 787.114C2490.7 787.756 2490.41 788.398 2490.1 789.059C2481.68 807.157 2470.58 822.488 2457 837.114C2456.13 838.079 2456.13 838.079 2455.25 839.063C2429.4 866.583 2388.45 884.57 2350.89 886.206C2348.76 886.238 2346.64 886.243 2344.52 886.234C2343.31 886.236 2343.31 886.236 2342.08 886.237C2339.41 886.239 2336.75 886.233 2334.08 886.228C2332.16 886.227 2330.23 886.227 2328.31 886.228C2323.11 886.228 2317.91 886.222 2312.71 886.215C2307.27 886.209 2301.83 886.209 2296.39 886.207C2286.09 886.204 2275.8 886.196 2265.5 886.186C2253.78 886.175 2242.05 886.169 2230.33 886.164C2206.22 886.154 2182.11 886.136 2158 886.114C2157.99 883.556 2157.98 880.997 2157.97 878.439C2157.97 877.719 2157.97 877 2157.96 876.259C2157.95 870.904 2158.26 865.718 2159.13 860.427C2159.26 859.602 2159.39 858.777 2159.52 857.928C2162.18 842.268 2167.02 827.359 2174 813.114C2174.33 812.429 2174.66 811.744 2175 811.038C2182.41 795.712 2192.21 782.389 2204 770.114C2204.84 769.223 2205.68 768.333 2206.54 767.415C2239.75 733.059 2284.78 718.901 2331.58 719.001Z" fill="#EAC479"/>
<path d="M2338.58 3041.74C2340.45 3041.74 2342.32 3041.74 2344.2 3041.74C2349.26 3041.74 2354.32 3041.73 2359.38 3041.72C2364.68 3041.72 2369.98 3041.72 2375.28 3041.72C2385.3 3041.71 2395.32 3041.7 2405.34 3041.69C2416.76 3041.68 2428.17 3041.68 2439.59 3041.67C2463.06 3041.66 2486.53 3041.64 2510 3041.62C2510.08 3037.23 2510.12 3032.84 2510.16 3028.45C2510.19 3027.23 2510.21 3026.01 2510.23 3024.74C2510.35 3006.99 2505.49 2989.66 2498 2973.62C2497.7 2972.98 2497.41 2972.34 2497.1 2971.68C2488.68 2953.58 2477.58 2938.25 2464 2923.62C2463.13 2922.66 2463.13 2922.66 2462.25 2921.67C2436.4 2894.15 2395.45 2876.17 2357.89 2874.53C2355.76 2874.5 2353.64 2874.49 2351.52 2874.5C2350.31 2874.5 2350.31 2874.5 2349.08 2874.5C2346.41 2874.5 2343.75 2874.5 2341.08 2874.51C2339.16 2874.51 2337.23 2874.51 2335.31 2874.51C2330.11 2874.51 2324.91 2874.51 2319.71 2874.52C2314.27 2874.53 2308.83 2874.53 2303.39 2874.53C2293.09 2874.53 2282.8 2874.54 2272.5 2874.55C2260.78 2874.56 2249.05 2874.57 2237.33 2874.57C2213.22 2874.58 2189.11 2874.6 2165 2874.62C2164.99 2877.18 2164.98 2879.74 2164.97 2882.3C2164.97 2883.02 2164.97 2883.74 2164.96 2884.48C2164.95 2889.83 2165.26 2895.02 2166.13 2900.31C2166.26 2901.13 2166.39 2901.96 2166.52 2902.81C2169.18 2918.47 2174.02 2933.38 2181 2947.62C2181.33 2948.31 2181.66 2948.99 2182 2949.7C2189.41 2965.02 2199.21 2978.35 2211 2990.62C2211.84 2991.51 2212.68 2992.4 2213.54 2993.32C2246.75 3027.68 2291.78 3041.83 2338.58 3041.74Z" fill="#C9612A"/>
<path d="M2158 1259.11C2183.49 1259.04 2208.98 1258.99 2234.46 1258.96C2246.3 1258.94 2258.14 1258.92 2269.97 1258.89C2280.3 1258.86 2290.62 1258.84 2300.94 1258.83C2306.4 1258.83 2311.86 1258.82 2317.32 1258.8C2322.48 1258.78 2327.63 1258.77 2332.78 1258.77C2334.66 1258.77 2336.54 1258.77 2338.41 1258.76C2381.7 1258.5 2422.32 1274.41 2453.48 1304.64C2454.93 1306.04 2456.4 1307.42 2457.87 1308.79C2478.95 1328.95 2491.78 1355.5 2500 1383.11C2500.55 1384.94 2500.55 1384.94 2501.11 1386.81C2503.23 1395.4 2503.13 1403.79 2503.07 1412.61C2503.06 1414.56 2503.06 1414.56 2503.05 1416.55C2503.04 1419.74 2503.02 1422.93 2503 1426.11C2479.69 1426.14 2456.39 1426.16 2433.08 1426.17C2422.26 1426.17 2411.44 1426.18 2400.61 1426.19C2391.17 1426.2 2381.73 1426.21 2372.29 1426.21C2367.3 1426.21 2362.31 1426.21 2357.32 1426.22C2352.61 1426.23 2347.89 1426.23 2343.18 1426.23C2341.46 1426.23 2339.75 1426.23 2338.03 1426.23C2288.88 1426.34 2245.79 1413.71 2209 1380.11C2208.13 1379.33 2207.26 1378.54 2206.36 1377.73C2178.73 1351.47 2160.48 1312.12 2158 1274.11C2157.97 1271.51 2157.96 1268.91 2157.98 1266.31C2157.98 1265.62 2157.98 1264.92 2157.98 1264.21C2157.99 1262.51 2157.99 1260.81 2158 1259.11Z" fill="#C9612A"/>
<path d="M2165.05 2501.86C2190.54 2501.93 2216.03 2501.99 2241.52 2502.02C2253.35 2502.03 2265.19 2502.06 2277.02 2502.09C2287.35 2502.12 2297.67 2502.14 2308 2502.15C2313.46 2502.15 2318.92 2502.16 2324.37 2502.18C2329.53 2502.2 2334.68 2502.21 2339.84 2502.2C2341.71 2502.2 2343.59 2502.21 2345.47 2502.22C2388.75 2502.48 2429.37 2486.57 2460.53 2456.34C2461.98 2454.94 2463.45 2453.56 2464.92 2452.18C2486 2432.03 2498.84 2405.47 2507.05 2377.86C2507.6 2376.04 2507.6 2376.04 2508.16 2374.17C2510.28 2365.57 2510.18 2357.18 2510.12 2348.37C2510.11 2346.42 2510.11 2346.42 2510.1 2344.43C2510.09 2341.24 2510.07 2338.05 2510.05 2334.86C2486.75 2334.84 2463.44 2334.82 2440.13 2334.81C2429.31 2334.81 2418.49 2334.8 2407.67 2334.79C2398.23 2334.78 2388.79 2334.77 2379.35 2334.77C2374.35 2334.77 2369.36 2334.77 2364.37 2334.76C2359.66 2334.75 2354.95 2334.75 2350.23 2334.75C2348.52 2334.75 2346.8 2334.75 2345.08 2334.74C2295.94 2334.64 2252.84 2347.27 2216.05 2380.86C2215.18 2381.65 2214.31 2382.44 2213.42 2383.25C2185.78 2409.5 2167.53 2448.86 2165.05 2486.86C2165.03 2489.47 2165.02 2492.06 2165.03 2494.67C2165.03 2495.36 2165.03 2496.05 2165.03 2496.77C2165.04 2498.47 2165.04 2500.17 2165.05 2501.86Z" fill="#F2D9AB"/>
<path d="M2314.44 359.994C2315.25 359.993 2316.06 359.992 2316.9 359.991C2319.6 359.99 2322.29 359.995 2324.99 360.001C2326.93 360.001 2328.88 360.001 2330.82 360C2336.08 360 2341.33 360.006 2346.59 360.013C2352.09 360.019 2357.59 360.02 2363.09 360.021C2373.5 360.024 2383.91 360.032 2394.32 360.042C2406.17 360.053 2418.02 360.059 2429.87 360.064C2454.25 360.074 2478.62 360.092 2503 360.114C2503.06 364.377 2503.09 368.64 2503.12 372.903C2503.14 374.096 2503.16 375.288 2503.18 376.517C2503.34 406.506 2489.76 436.419 2472 460.114C2471.35 460.988 2470.7 461.862 2470.03 462.763C2459.04 476.835 2445.96 489.364 2431 499.114C2430.08 499.716 2430.08 499.716 2429.13 500.331C2389.79 525.606 2347.98 527.449 2302.51 527.317C2297.42 527.304 2292.32 527.303 2287.23 527.301C2277.62 527.295 2268 527.278 2258.39 527.258C2247.43 527.236 2236.48 527.225 2225.52 527.215C2203.01 527.194 2180.51 527.159 2158 527.114C2157.99 524.56 2157.98 522.006 2157.97 519.452C2157.96 518.376 2157.96 518.376 2157.95 517.277C2157.94 511.779 2158.34 506.478 2159.25 501.052C2159.39 500.209 2159.52 499.367 2159.66 498.499C2165.39 464.435 2181.06 435.547 2204 410.114C2205.01 408.991 2205.01 408.991 2206.05 407.845C2212.06 401.538 2219.02 396.293 2226 391.114C2226.57 390.688 2227.14 390.263 2227.73 389.824C2252.08 371.936 2284.01 359.875 2314.44 359.994Z" fill="#C9612A"/>
<path d="M2321.49 3400.98C2322.3 3400.99 2323.12 3400.99 2323.95 3400.99C2326.65 3400.99 2329.35 3400.98 2332.04 3400.98C2333.99 3400.98 2335.93 3400.98 2337.87 3400.98C2343.13 3400.98 2348.39 3400.97 2353.64 3400.97C2359.14 3400.96 2364.64 3400.96 2370.14 3400.96C2380.55 3400.95 2390.96 3400.95 2401.37 3400.94C2413.22 3400.93 2425.07 3400.92 2436.93 3400.91C2461.3 3400.9 2485.68 3400.89 2510.05 3400.86C2510.11 3396.6 2510.15 3392.34 2510.18 3388.08C2510.19 3386.88 2510.21 3385.69 2510.23 3384.46C2510.39 3354.47 2496.81 3324.56 2479.05 3300.86C2478.4 3299.99 2477.75 3299.12 2477.08 3298.22C2466.1 3284.14 2453.01 3271.61 2438.05 3261.86C2437.13 3261.26 2437.13 3261.26 2436.19 3260.65C2396.84 3235.37 2355.04 3233.53 2309.57 3233.66C2304.47 3233.67 2299.37 3233.68 2294.28 3233.68C2284.67 3233.68 2275.06 3233.7 2265.45 3233.72C2254.49 3233.74 2243.53 3233.75 2232.57 3233.76C2210.07 3233.78 2187.56 3233.82 2165.05 3233.86C2165.04 3236.42 2165.03 3238.97 2165.02 3241.53C2165.01 3242.6 2165.01 3242.6 2165.01 3243.7C2164.99 3249.2 2165.39 3254.5 2166.3 3259.93C2166.44 3260.77 2166.57 3261.61 2166.71 3262.48C2172.44 3296.54 2188.11 3325.43 2211.05 3350.86C2212.07 3351.99 2212.07 3351.99 2213.1 3353.13C2219.11 3359.44 2226.07 3364.69 2233.05 3369.86C2233.62 3370.29 2234.19 3370.72 2234.78 3371.15C2259.13 3389.04 2291.06 3401.1 2321.49 3400.98Z" fill="#F2D9AB"/>
<path d="M1439 1618.11C1463.59 1618.07 1488.19 1618.03 1512.78 1618.01C1524.2 1618 1535.62 1617.99 1547.04 1617.96C1557 1617.94 1566.96 1617.93 1576.92 1617.93C1582.19 1617.92 1587.46 1617.92 1592.72 1617.9C1597.7 1617.89 1602.67 1617.88 1607.64 1617.89C1609.45 1617.89 1611.26 1617.88 1613.08 1617.88C1628.92 1617.81 1644.53 1618.74 1659.94 1622.74C1660.95 1623 1661.96 1623.26 1663 1623.52C1672.76 1626.14 1681.9 1629.73 1691 1634.11C1692.11 1634.65 1692.11 1634.65 1693.24 1635.19C1707.15 1641.98 1719.32 1650.27 1730.61 1660.87C1732.6 1662.74 1734.64 1664.5 1736.75 1666.24C1762.68 1688.45 1777.8 1724.26 1783.81 1757.11C1784 1758.07 1784 1758.07 1784.19 1759.05C1785.09 1764.51 1785.06 1769.92 1785.03 1775.43C1785.03 1776.27 1785.03 1777.1 1785.02 1777.96C1785.02 1780.01 1785.01 1782.06 1785 1784.11C1758.8 1784.23 1732.6 1784.32 1706.4 1784.37C1694.23 1784.4 1682.06 1784.43 1669.89 1784.49C1659.28 1784.54 1648.66 1784.57 1638.05 1784.58C1632.44 1784.59 1626.82 1784.61 1621.21 1784.64C1576.16 1784.93 1576.16 1784.93 1558 1779.11C1556.2 1778.59 1556.2 1778.59 1554.37 1778.05C1551.73 1777.25 1549.19 1776.35 1546.63 1775.36C1545.73 1775.03 1544.83 1774.69 1543.91 1774.34C1501.85 1758.06 1469.42 1724.78 1451.06 1684.03C1443.39 1666.09 1438.82 1646.18 1438.96 1626.68C1438.96 1625.86 1438.96 1625.03 1438.97 1624.18C1438.97 1622.16 1438.99 1620.13 1439 1618.11Z" fill="#C9612A"/>
<path d="M1446 2142.62C1470.59 2142.67 1495.19 2142.7 1519.78 2142.73C1531.2 2142.74 1542.62 2142.75 1554.04 2142.77C1564 2142.79 1573.96 2142.81 1583.92 2142.81C1589.19 2142.81 1594.46 2142.82 1599.72 2142.83C1604.7 2142.85 1609.67 2142.85 1614.64 2142.85C1616.45 2142.85 1618.26 2142.85 1620.08 2142.86C1635.92 2142.92 1651.53 2142 1666.94 2138C1667.95 2137.74 1668.96 2137.48 1670 2137.21C1679.76 2134.6 1688.9 2131.01 1698 2126.62C1699.11 2126.09 1699.11 2126.09 1700.24 2125.55C1714.15 2118.75 1726.32 2110.47 1737.61 2099.86C1739.6 2097.99 1741.64 2096.23 1743.75 2094.5C1769.68 2072.29 1784.8 2036.48 1790.81 2003.62C1791 2002.66 1791 2002.66 1791.19 2001.69C1792.09 1996.23 1792.06 1990.82 1792.03 1985.31C1792.03 1984.47 1792.03 1983.63 1792.02 1982.77C1792.02 1980.72 1792.01 1978.67 1792 1976.62C1765.8 1976.5 1739.6 1976.42 1713.4 1976.36C1701.23 1976.34 1689.06 1976.3 1676.89 1976.24C1666.28 1976.19 1655.66 1976.16 1645.05 1976.15C1639.44 1976.14 1633.82 1976.13 1628.21 1976.09C1583.16 1975.81 1583.16 1975.81 1565 1981.62C1563.2 1982.15 1563.2 1982.15 1561.37 1982.69C1558.73 1983.48 1556.19 1984.38 1553.63 1985.37C1552.73 1985.71 1551.83 1986.04 1550.91 1986.39C1508.85 2002.67 1476.42 2035.96 1458.06 2076.7C1450.39 2094.65 1445.82 2114.55 1445.96 2134.05C1445.96 2134.88 1445.96 2135.71 1445.97 2136.56C1445.97 2138.58 1445.99 2140.6 1446 2142.62Z" fill="#EAC479"/>
<path d="M720 1618.11C744.61 1618.07 769.22 1618.03 793.829 1618.01C805.257 1618 816.686 1617.99 828.114 1617.96C838.081 1617.94 848.048 1617.93 858.015 1617.93C863.287 1617.92 868.559 1617.92 873.83 1617.9C878.805 1617.89 883.78 1617.88 888.755 1617.89C890.568 1617.89 892.382 1617.88 894.195 1617.88C909.129 1617.81 923.821 1618.69 938.375 1622.3C939.251 1622.52 940.127 1622.73 941.029 1622.96C969.241 1630.17 994.009 1643.95 1015 1664.11C1015.5 1664.58 1015.99 1665.04 1016.5 1665.52C1042.85 1690.28 1058.9 1723.42 1064.88 1758.93C1065.06 1759.96 1065.06 1759.96 1065.24 1761.02C1066.01 1766.15 1066.05 1771.24 1066.03 1776.43C1066.03 1777.17 1066.02 1777.91 1066.02 1778.67C1066.02 1780.48 1066.01 1782.3 1066 1784.11C1039.73 1784.21 1013.46 1784.28 987.19 1784.32C974.99 1784.34 962.791 1784.37 950.592 1784.42C939.951 1784.46 929.311 1784.48 918.671 1784.49C913.043 1784.5 907.416 1784.51 901.789 1784.54C896.478 1784.56 891.167 1784.57 885.855 1784.57C883.92 1784.57 881.985 1784.58 880.05 1784.59C863.515 1784.72 848.035 1782.3 832.375 1776.86C831.072 1776.42 831.072 1776.42 829.744 1775.96C810.673 1769.26 793.172 1759.54 778 1746.11C777.014 1745.25 776.028 1744.38 775.012 1743.49C746.367 1718.03 726.601 1683.25 721 1645.11C720.74 1643.34 720.74 1643.34 720.475 1641.54C719.877 1636.72 719.889 1631.96 719.938 1627.11C719.942 1626.24 719.947 1625.37 719.951 1624.48C719.963 1622.36 719.981 1620.23 720 1618.11Z" fill="#C9612A"/>
<path d="M727.053 2142.86C751.663 2142.91 776.272 2142.95 800.882 2142.97C812.31 2142.98 823.738 2142.99 835.166 2143.02C845.134 2143.04 855.101 2143.05 865.068 2143.05C870.34 2143.05 875.611 2143.06 880.883 2143.08C885.858 2143.09 890.833 2143.09 895.807 2143.09C897.621 2143.09 899.434 2143.09 901.248 2143.1C916.181 2143.16 930.874 2142.29 945.428 2138.68C946.304 2138.46 947.18 2138.25 948.082 2138.02C976.294 2130.81 1001.06 2117.03 1022.05 2096.86C1022.55 2096.4 1023.04 2095.94 1023.55 2095.46C1049.91 2070.7 1065.95 2037.56 1071.93 2002.05C1072.11 2001.02 1072.11 2001.02 1072.29 1999.96C1073.06 1994.82 1073.11 1989.74 1073.08 1984.55C1073.08 1983.81 1073.08 1983.07 1073.07 1982.31C1073.07 1980.49 1073.06 1978.68 1073.05 1976.86C1046.78 1976.77 1020.51 1976.7 994.242 1976.66C982.043 1976.64 969.844 1976.61 957.644 1976.56C947.004 1976.52 936.364 1976.5 925.723 1976.49C920.096 1976.48 914.469 1976.47 908.842 1976.44C903.53 1976.41 898.219 1976.41 892.908 1976.41C890.973 1976.41 889.037 1976.4 887.102 1976.39C870.568 1976.26 855.088 1978.67 839.428 1984.11C838.125 1984.56 838.125 1984.56 836.796 1985.02C817.726 1991.72 800.225 2001.44 785.053 2014.86C784.067 2015.73 783.081 2016.59 782.065 2017.49C753.42 2042.95 733.653 2077.72 728.053 2115.86C727.793 2117.63 727.793 2117.63 727.527 2119.44C726.93 2124.25 726.942 2129.02 726.99 2133.86C726.995 2134.73 726.999 2135.6 727.004 2136.5C727.016 2138.62 727.034 2140.74 727.053 2142.86Z" fill="#F2D9AB"/>
<path d="M2331.69 1618C2333.56 1618 2335.44 1618 2337.31 1618C2342.37 1618 2347.43 1618.01 2352.48 1618.01C2357.78 1618.02 2363.07 1618.02 2368.37 1618.02C2378.38 1618.02 2388.4 1618.03 2398.42 1618.04C2409.82 1618.05 2421.23 1618.06 2432.64 1618.06C2456.09 1618.07 2479.55 1618.09 2503 1618.11C2503.08 1622.5 2503.12 1626.89 2503.16 1631.28C2503.19 1632.51 2503.21 1633.73 2503.23 1634.99C2503.35 1652.75 2498.49 1670.08 2491 1686.11C2490.7 1686.76 2490.41 1687.4 2490.1 1688.06C2471.61 1727.78 2438.54 1759.82 2397.27 1775.16C2383.24 1780.11 2368.48 1784.29 2353.53 1784.23C2352.7 1784.24 2351.86 1784.24 2350.99 1784.24C2348.19 1784.24 2345.39 1784.23 2342.59 1784.23C2340.58 1784.23 2338.57 1784.23 2336.56 1784.23C2331.11 1784.23 2325.65 1784.22 2320.2 1784.22C2314.5 1784.21 2308.8 1784.21 2303.09 1784.21C2292.3 1784.2 2281.5 1784.2 2270.71 1784.19C2258.42 1784.17 2246.13 1784.17 2233.84 1784.16C2208.56 1784.15 2183.28 1784.14 2158 1784.11C2157.99 1781.72 2157.98 1779.33 2157.97 1776.93C2157.97 1776.26 2157.97 1775.59 2157.96 1774.89C2157.95 1769.67 2158.3 1764.64 2159.13 1759.49C2159.32 1758.25 2159.32 1758.25 2159.52 1756.98C2162.17 1741.3 2167.01 1726.37 2174 1712.11C2174.33 1711.43 2174.66 1710.74 2175 1710.04C2182.41 1694.71 2192.21 1681.39 2204 1669.11C2204.84 1668.22 2205.68 1667.33 2206.54 1666.41C2239.82 1631.99 2284.84 1617.9 2331.69 1618Z" fill="#C9612A"/>
<path d="M2338.69 2142.74C2340.56 2142.74 2342.44 2142.74 2344.31 2142.74C2349.37 2142.74 2354.43 2142.73 2359.48 2142.72C2364.78 2142.72 2370.07 2142.72 2375.37 2142.72C2385.38 2142.71 2395.4 2142.7 2405.42 2142.69C2416.82 2142.68 2428.23 2142.68 2439.64 2142.67C2463.09 2142.66 2486.55 2142.64 2510 2142.62C2510.08 2138.23 2510.12 2133.84 2510.16 2129.45C2510.19 2128.23 2510.21 2127.01 2510.23 2125.74C2510.35 2107.99 2505.49 2090.66 2498 2074.62C2497.7 2073.98 2497.41 2073.34 2497.1 2072.68C2478.61 2032.96 2445.54 2000.91 2404.27 1985.57C2390.24 1980.62 2375.48 1976.45 2360.53 1976.5C2359.7 1976.5 2358.86 1976.5 2357.99 1976.5C2355.19 1976.5 2352.39 1976.5 2349.59 1976.51C2347.58 1976.51 2345.57 1976.51 2343.56 1976.51C2338.11 1976.51 2332.65 1976.51 2327.2 1976.52C2321.5 1976.53 2315.8 1976.53 2310.09 1976.53C2299.3 1976.53 2288.5 1976.54 2277.71 1976.55C2265.42 1976.56 2253.13 1976.57 2240.84 1976.57C2215.56 1976.58 2190.28 1976.6 2165 1976.62C2164.99 1979.02 2164.98 1981.41 2164.97 1983.8C2164.97 1984.48 2164.97 1985.15 2164.96 1985.84C2164.95 1991.07 2165.3 1996.09 2166.13 2001.25C2166.32 2002.49 2166.32 2002.49 2166.52 2003.76C2169.17 2019.44 2174.01 2034.36 2181 2048.62C2181.33 2049.31 2181.66 2049.99 2182 2050.7C2189.41 2066.02 2199.21 2079.35 2211 2091.62C2211.84 2092.51 2212.68 2093.4 2213.54 2094.32C2246.82 2128.75 2291.84 2142.83 2338.69 2142.74Z" fill="#C9612A"/>
<path d="M2338 899.114C2340.22 899.102 2342.45 899.094 2344.67 899.086C2345.91 899.081 2347.15 899.076 2348.43 899.071C2353.04 899.127 2357.5 899.557 2362.06 900.239C2363.38 900.435 2363.38 900.435 2364.73 900.635C2406.93 907.381 2446.16 930.647 2471.74 965.004C2485.69 984.268 2495.19 1005.05 2501 1028.11C2501.17 1028.73 2501.35 1029.35 2501.53 1029.98C2503.81 1039.26 2503.26 1048.85 2503.23 1058.34C2503.23 1060.39 2503.23 1062.44 2503.23 1064.5C2503.23 1070.04 2503.22 1075.58 2503.2 1081.13C2503.19 1086.93 2503.19 1092.74 2503.19 1098.54C2503.18 1109.52 2503.16 1120.5 2503.14 1131.47C2503.12 1143.98 2503.11 1156.48 2503.1 1168.98C2503.08 1194.69 2503.04 1220.4 2503 1246.11C2499.8 1245.97 2496.61 1245.82 2493.42 1245.67C2492.52 1245.63 2491.62 1245.59 2490.69 1245.55C2483.88 1245.22 2477.3 1244.47 2470.62 1243.05C2469.58 1242.83 2468.54 1242.62 2467.47 1242.39C2437.19 1235.72 2410.1 1220.75 2388 1199.11C2386.6 1197.79 2386.6 1197.79 2385.17 1196.44C2358.82 1171.01 2339.57 1132 2337.91 1095.08C2337.88 1092.93 2337.87 1090.78 2337.88 1088.64C2337.88 1087.82 2337.88 1087 2337.88 1086.16C2337.88 1083.45 2337.88 1080.74 2337.89 1078.03C2337.89 1076.08 2337.89 1074.13 2337.89 1072.17C2337.89 1066.89 2337.89 1061.61 2337.9 1056.32C2337.9 1050.79 2337.91 1045.27 2337.91 1039.74C2337.91 1029.28 2337.92 1018.81 2337.93 1008.35C2337.94 996.439 2337.94 984.527 2337.95 972.614C2337.96 948.114 2337.98 923.614 2338 899.114Z" fill="#C9612A"/>
<path d="M2345 2861.62C2347.22 2861.63 2349.45 2861.64 2351.67 2861.65C2352.91 2861.65 2354.15 2861.66 2355.43 2861.67C2360.04 2861.61 2364.5 2861.18 2369.06 2860.5C2370.38 2860.3 2370.38 2860.3 2371.73 2860.1C2413.93 2853.35 2453.16 2830.09 2478.74 2795.73C2492.69 2776.47 2502.19 2755.68 2508 2732.62C2508.17 2732.01 2508.35 2731.39 2508.53 2730.76C2510.81 2721.47 2510.26 2711.88 2510.23 2702.39C2510.23 2700.34 2510.23 2698.29 2510.23 2696.24C2510.23 2690.7 2510.22 2685.15 2510.2 2679.61C2510.19 2673.8 2510.19 2668 2510.19 2662.2C2510.18 2651.22 2510.16 2640.24 2510.14 2629.26C2510.12 2616.76 2510.11 2604.26 2510.1 2591.75C2510.08 2566.04 2510.04 2540.33 2510 2514.62C2506.8 2514.76 2503.61 2514.91 2500.42 2515.06C2499.52 2515.1 2498.62 2515.14 2497.69 2515.19C2490.88 2515.51 2484.3 2516.27 2477.62 2517.68C2476.58 2517.9 2475.54 2518.12 2474.47 2518.34C2444.19 2525.01 2417.1 2539.99 2395 2561.62C2393.6 2562.95 2393.6 2562.95 2392.17 2564.3C2365.82 2589.73 2346.57 2628.74 2344.91 2665.66C2344.88 2667.81 2344.87 2669.95 2344.88 2672.1C2344.88 2672.92 2344.88 2673.73 2344.88 2674.57C2344.88 2677.28 2344.88 2679.99 2344.89 2682.71C2344.89 2684.66 2344.89 2686.61 2344.89 2688.56C2344.89 2693.85 2344.89 2699.13 2344.9 2704.41C2344.9 2709.94 2344.91 2715.47 2344.91 2721C2344.91 2731.46 2344.92 2741.92 2344.93 2752.38C2344.94 2764.3 2344.94 2776.21 2344.95 2788.12C2344.96 2812.62 2344.98 2837.12 2345 2861.62Z" fill="#C9612A"/>
</svg>
